<?xml version="1.0" encoding="utf-8"?>
<!-- Generator: Adobe Illustrator 27.5.0, SVG Export Plug-In . SVG Version: 6.00 Build 0)  -->
<svg version="1.1" id="Ñëîé_1" xmlns="http://www.w3.org/2000/svg" xmlns:xlink="http://www.w3.org/1999/xlink" x="0px" y="0px"
	 viewBox="0 0 2600 2000" style="enable-background:new 0 0 2600 2000;" xml:space="preserve">
<rect id="_x36__1_" style="fill:#FFFFFF;" width="2600" height="2000"/>
<g>
	<g id="_x35__1_">
		<path style="fill:#D4E8FF;" d="M568.851,1663.57c0,0-291.328-858.604-99.851-1017.57c127.984-106.253,233,116,330,11
			c123.174-133.332,94-354,295-375c262.674-27.444,469.429,594.276,681.553,508.713
			c257.399-103.825,513.443,106.942,292.174,874.219L568.851,1663.57z"/>
		<path style="fill:#DCE6FF;" d="M360.666,1602.365c-4.466-14.19-8.886-28.895-13.135-43.703l10.472-3.229
			c4.222,14.713,8.612,29.321,13.049,43.416L360.666,1602.365z M2234.003,1584.039l-10.842-1.388
			c1.8-15.106,3.51-30.319,5.081-45.217l10.86,1.232C2237.525,1553.616,2235.809,1568.882,2234.003,1584.039z M335.47,1514.642
			c-3.824-14.635-7.532-29.542-11.022-44.307l10.611-2.696c3.47,14.676,7.155,29.494,10.956,44.041L335.47,1514.642z
			 M2243.574,1493.219l-10.875-1.066c1.382-15.166,2.662-30.423,3.804-45.344l10.89,0.895
			C2246.248,1462.683,2244.963,1477.996,2243.574,1493.219z M314.466,1425.767c-3.155-14.91-6.157-29.986-8.924-44.811l10.726-2.151
			c2.749,14.732,5.733,29.716,8.868,44.533L314.466,1425.767z M2250.529,1402.128l-10.903-0.715
			c0.925-15.156,1.736-30.444,2.41-45.438l10.912,0.527C2252.271,1371.559,2251.458,1386.909,2250.529,1402.128z M297.713,1335.923
			c-2.429-15.093-4.679-30.312-6.685-45.236l10.82-1.563c1.993,14.824,4.228,29.941,6.641,44.935L297.713,1335.923z
			 M2254.617,1310.835l-10.921-0.329c0.427-15.223,0.72-30.527,0.874-45.488l10.925,0.12
			C2255.34,1280.168,2255.045,1295.543,2254.617,1310.835z M285.546,1245.269c-1.629-15.245-3.046-30.576-4.214-45.57l10.889-0.912
			c1.159,14.882,2.566,30.101,4.183,45.235L285.546,1245.269z M2244.615,1219.527c-0.129-15.235-0.408-30.534-0.83-45.474
			l10.921-0.331c0.423,15.017,0.705,30.394,0.834,45.706L2244.615,1219.527z M278.467,1154.01
			c-0.725-15.334-1.205-30.729-1.429-45.759l10.924-0.175c0.221,14.904,0.698,30.172,1.416,45.38L278.467,1154.01z
			 M2242.029,1128.62c-0.75-15.215-1.673-30.48-2.741-45.374l10.894-0.84c1.075,14.98,2.002,30.334,2.757,45.635L2242.029,1128.62z
			 M288.066,1062.678l-10.923-0.233c0.304-15.375,0.891-30.775,1.744-45.771l10.906,0.666
			C288.948,1032.193,288.367,1047.447,288.066,1062.678z M2235.498,1037.964c-1.459-15.211-3.112-30.405-4.911-45.158l10.838-1.421
			c1.812,14.852,3.475,30.147,4.945,45.457L2235.498,1037.964z M293.258,972.124l-10.87-1.132
			c1.484-15.317,3.293-30.626,5.378-45.503l10.811,1.628C296.515,941.83,294.725,956.972,293.258,972.124z M2224.47,947.821
			c-2.273-15.116-4.768-30.174-7.416-44.758l10.735-2.096c2.671,14.7,5.186,29.876,7.476,45.109L2224.47,947.821z M932.417,946.222
			c-15.18-2.482-26.161-9.646-41.371-22.018l6.905-8.777c13.325,10.81,22.948,17.295,35.629,19.533L932.417,946.222z
			 M970.32,919.274l-9.729-5.151c5.001-10.153,9.422-24.243,13.141-41.878l10.673,2.419
			C980.431,893.509,975.824,908.101,970.32,919.274z M858.984,891.719c-8.703-10.048-18.004-21.613-28.433-35.354l8.585-7.005
			c10.282,13.547,19.434,24.927,27.977,34.791L858.984,891.719z M305.874,882.429l-10.725-2.158
			c2.83-15.118,6.033-30.192,9.518-44.806l10.606,2.72C311.831,852.613,308.668,867.498,305.874,882.429z M2208.224,858.6
			c-3.235-14.96-6.725-29.791-10.373-44.081l10.562-2.898c3.683,14.428,7.205,29.401,10.469,44.501L2208.224,858.6z
			 M991.755,829.078l-10.835-1.446c1.678-13.52,3.182-28.325,4.597-45.263l10.884,0.978
			C994.972,800.443,993.453,815.401,991.755,829.078z M803.793,819.872c-8.88-12.434-18.091-25.578-26.028-36.921l8.844-6.651
			c7.921,11.322,17.113,24.438,25.964,36.831L803.793,819.872z M1603.623,818.94c-8.508,0-16.856-2.635-24.811-7.833l5.825-9.583
			c11.95,7.821,23.706,7.839,36.4,1.601l4.7,10.224C1618.232,817.059,1610.792,818.94,1603.623,818.94z M326.893,794.535
			l-10.448-3.312c4.341-14.717,9.103-29.354,14.155-43.504l10.245,3.931C335.866,765.597,331.172,780.026,326.893,794.535z
			 M1661.461,783.737l-8.027-7.684c8.283-9.301,17.163-20.774,27.146-35.077l8.851,6.642
			C1679.191,762.288,1670.042,774.102,1661.461,783.737z M1547.749,775.949c-7.07-11.308-14.076-24.625-21.419-40.711l9.874-4.845
			c7.134,15.627,13.908,28.514,20.713,39.396L1547.749,775.949z M2185.781,770.933c-4.401-14.676-9.097-29.123-13.958-42.94
			l10.264-3.881c4.921,13.987,9.674,28.609,14.127,43.458L2185.781,770.933z M751.875,746.024
			c-9.995-14.162-18.325-25.79-26.215-36.591l8.71-6.838c7.926,10.852,16.29,22.526,26.322,36.74L751.875,746.024z M999.688,737.605
			l-10.902-0.731c0.828-13.271,1.671-28.186,2.576-45.599l10.909,0.61C1001.363,709.338,1000.518,724.293,999.688,737.605z
			 M357.221,709.722l-9.995-4.573c5.997-14.082,12.388-27.911,19.179-41.434l9.687,5.236
			C369.41,682.257,363.123,695.864,357.221,709.722z M1714.459,709.719l-9.129-6.224c7.764-12.237,15.783-25.203,23.9-38.301
			l9.191,6.123C1730.285,684.45,1722.257,697.427,1714.459,709.719z M1508.744,692.969c-4.949-12.869-10.062-26.909-15.632-42.922
			l10.276-3.843c5.53,15.894,10.601,29.82,15.505,42.571L1508.744,692.969z M2155.752,685.904
			c-5.873-14.185-12.086-27.964-18.467-40.954l9.737-5.139c6.487,13.209,12.802,27.214,18.769,41.625L2155.752,685.904z
			 M698.687,673.542c-9.913-12.758-19.14-24.112-28.209-34.713l8.173-7.516c9.184,10.736,18.521,22.224,28.544,35.123
			L698.687,673.542z M1004.543,646.194l-10.911-0.57c0.736-15.132,1.467-30.272,2.247-45.678l10.91,0.594
			C1006.009,615.937,1005.278,631.069,1004.543,646.194z M1762.373,633.063l-9.114-6.245c9.128-14.319,17.291-26.706,24.959-37.868
			l8.898,6.571C1779.523,606.573,1771.429,618.854,1762.373,633.063z M397.759,629.866l-9.208-6.096
			c8.585-13.94,17.437-26.53,26.309-37.419l8.346,7.309C414.645,604.167,406.084,616.349,397.759,629.866z M1478.524,606.823
			c-5.01-15.222-9.926-30.453-14.073-43.344l10.364-3.584c4.142,12.873,9.05,28.08,14.049,43.269L1478.524,606.823z M640.44,606.03
			c-11.166-11.271-22.145-21.228-32.632-29.595l6.662-8.977c10.821,8.633,22.123,18.88,33.591,30.455L640.44,606.03z
			 M2116.075,605.546c-7.828-13.244-16.036-25.77-24.395-37.23l8.712-6.833c8.574,11.753,16.985,24.587,24.997,38.144
			L2116.075,605.546z M453.848,562.844l-6.626-9.006c13.046-10.318,26.625-17.759,40.357-22.117l3.197,10.831
			C478.285,546.516,465.861,553.343,453.848,562.844z M1813.465,559.38l-8.487-7.132c10.245-13.107,19.954-24.385,29.68-34.479
			l7.728,8.005C1832.931,535.588,1823.471,546.581,1813.465,559.38z M1009.237,554.926l-10.905-0.674
			c0.946-16.464,1.885-31.415,2.871-45.708l10.897,0.808C1011.117,523.6,1010.18,538.508,1009.237,554.926z M571.689,552.555
			c-13.632-7.033-27.041-11.523-39.854-13.343l1.483-11.222c13.992,1.988,28.54,6.841,43.238,14.424L571.689,552.555z
			 M2063.575,534.245c-10.517-11.172-21.408-21.033-32.367-29.309l6.433-9.156c11.452,8.648,22.808,18.928,33.753,30.554
			L2063.575,534.245z M1450.516,520.137c-5.435-16.853-9.913-30.594-14.095-43.245l10.333-3.672
			c4.192,12.678,8.679,26.445,14.122,43.325L1450.516,520.137z M1875.082,496.862l-6.262-9.281
			c13.436-9.745,27.006-16.963,40.336-21.451l3.374,10.773C1900.231,481.044,1887.632,487.76,1875.082,496.862z M1994.285,482.986
			c-13.53-5.917-27.227-9.579-40.708-10.885l1.016-11.278c14.594,1.414,29.377,5.359,43.937,11.726L1994.285,482.986z
			 M1015.595,463.878l-10.882-1.002c1.361-15.892,2.842-31.24,4.402-45.618l10.857,1.266
			C1018.421,432.815,1016.949,448.073,1015.595,463.878z M1421.886,433.812c-5.279-15.277-10.253-29.242-15.209-42.691l10.206-4.042
			c4.983,13.524,9.983,27.561,15.287,42.912L1421.886,433.812z M1025.534,373.359l-10.813-1.62
			c2.21-15.858,4.639-31.109,7.22-45.329l10.736,2.094C1030.125,342.568,1027.721,357.658,1025.534,373.359z M1390.447,348.829
			c-5.87-14.64-11.787-28.646-17.588-41.631l9.914-4.76c5.861,13.12,11.837,27.265,17.763,42.043L1390.447,348.829z
			 M1041.954,284.181l-10.599-2.745c3.811-15.817,8.011-30.715,12.485-44.281l10.337,3.664
			C1049.802,254.084,1045.69,268.673,1041.954,284.181z M1353.457,266.548c-7.185-14.03-14.525-27.202-21.816-39.148l9.232-6.056
			c7.438,12.188,14.917,25.609,22.234,39.892L1353.457,266.548z M1070.584,199.321l-9.797-5.013
			c7.174-15.07,15.128-28.394,23.644-39.603l8.582,7.009C1084.968,172.305,1077.421,184.958,1070.584,199.321z M1306.602,190.664
			c-9.546-12.407-19.399-23.398-29.284-32.666l7.328-8.401c10.322,9.678,20.583,21.119,30.496,34.004L1306.602,190.664z
			 M1123.493,132.356l-5.89-9.54c12.942-8.587,27.2-14.172,42.38-16.596l1.663,11.195
			C1147.981,119.597,1135.144,124.624,1123.493,132.356z M1242.849,132.349c-12.726-7.113-25.983-11.976-39.401-14.453l1.915-11.152
			c14.564,2.689,28.92,7.95,42.67,15.635L1242.849,132.349z"/>
		<path style="fill:#EEF7FF;" d="M2303.238,1415.16c-90.658-14.817-75.865,119.049-205.091,119.049
			c-118.151,0-155.951-509.789-241.916-364.062c-440.709,747.082-184.797-317.71-535.286-331.241
			c-158.481-6.118-264.085,180.216-303.028,510.13c-56.45,298.253-187.365-227.483-322.092-178.601
			c-85.625,31.067-75.819,363.774-193.971,363.774c-129.227,0-114.433-133.866-205.091-119.049
			c-97.608,15.953-125.082,252.894-125.082,252.894H2427.78C2427.78,1668.054,2400.846,1431.113,2303.238,1415.16z"/>
		<path style="fill:#DCE6FF;" d="M2222.954,1560.065c-83.403-6.327-69.793,50.836-188.679,50.836
			c-108.696,0-105.71-128.109-178.448-155.336c-133.952-50.14-244.384,203.623-296.317,76.265
			c-98.634-337.936-386.307-507.409-519.021,0c-51.933,127.358-173.377-99.894-296.317-76.265
			c-75.674,14.545-69.752,155.336-178.448,155.336c-118.885,0-105.275-57.163-188.679-50.836
			c-89.797,6.812-116.618,107.989-116.618,107.989h2079.146C2339.573,1668.054,2312.752,1566.877,2222.954,1560.065z"/>
		<path style="fill:#CFDDF9;" d="M171.681,1668.054c0,0-15.856,52.38,49.831,65.494c89.847,17.938,617.238,65.067,489.116,100.88
			c-72.325,20.217,36.921,47.668,389.197,57.777s956.752-29.499,753.476-88.102c-203.277-58.603,624.927-14.152,574.479-136.049
			H171.681z"/>
		<ellipse style="fill:#B6CDF2;" cx="1278.484" cy="1777.076" rx="389.431" ry="28.342"/>
	</g>
	<g id="_x34__1_">
		<path style="fill:#163356;" d="M1250.426,391.692c-23.908-0.398-46.851,12.078-61.903,30.301
			c-14.35-19.47-38.862-31.797-63.088-29.972c25.341,7.656,45.652,24.712,59.289,46.809c4.019,2.643,8.418-0.022,10.274-3.928
			c14.501-20.913,36.275-35.522,60.65-42.88C1253.915,391.868,1252.167,391.728,1250.426,391.692z"/>
		<path style="fill:#163356;" d="M1608.168,367.279c-24.778-1.501-48.941,11.316-64.523,30.174
			c-14.35-19.469-38.862-31.797-63.088-29.972c25.341,7.656,45.652,24.712,59.289,46.809c4.019,2.643,8.418-0.022,10.274-3.928
			c14.501-20.913,36.275-35.522,60.651-42.88C1609.906,367.396,1609.038,367.328,1608.168,367.279z"/>
		<path style="fill:#163356;" d="M1123.901,281.946c-24.778-1.501-48.941,11.316-64.523,30.173
			c-14.35-19.47-38.862-31.797-63.088-29.972c25.341,7.656,45.652,24.712,59.289,46.808c4.019,2.643,8.418-0.022,10.274-3.928
			c14.501-20.913,36.275-35.523,60.651-42.88C1125.638,282.063,1124.771,281.995,1123.901,281.946z"/>
		<path style="fill:#163356;" d="M732.264,642.437c-23.908-0.399-46.851,12.078-61.903,30.301
			c-14.35-19.469-38.862-31.797-63.088-29.972c25.341,7.656,45.652,24.712,59.289,46.809c4.019,2.643,8.418-0.022,10.274-3.928
			c14.501-20.913,36.275-35.523,60.65-42.88C735.752,642.612,734.004,642.472,732.264,642.437z"/>
		<path style="fill:#163356;" d="M890.264,449.437c-23.908-0.399-46.851,12.078-61.903,30.301
			c-14.35-19.47-38.862-31.797-63.088-29.972c25.341,7.656,45.652,24.712,59.289,46.809c4.019,2.643,8.418-0.022,10.274-3.928
			c14.501-20.913,36.275-35.522,60.65-42.88C893.752,449.612,892.004,449.472,890.264,449.437z"/>
	</g>
	<g id="_x33_">
		<g id="_x38_">
			<path style="fill:#B8D2FF;" d="M1883.979,1073.504c0.306,469.57-517.489,758.743-916.755,514.639
				c-342.656-207-389.738-696.66-87.391-964.377c35.81-32.023,75.624-59.873,118.042-82.418
				C1397.522,328.65,1883.726,618.546,1883.979,1073.504z"/>
			<path style="fill:#97AEEF;" d="M1888.208,1075.212c-0.479,167.936-75.379,324.256-188.957,431.91
				c-39.456,37.398-196.251,36.877-148.042-98.645c24.254-68.18-2.622-82.685-87.988-121.288
				c-85.307-38.603-85.515-90.58,78.427-87.482c163.971,3.068,202.723-219.016,96.536-196.022
				c-106.157,22.995-185.775-7.774-214.459-56.295c-10.574-17.901-34.015-25.378-58.44-30.292
				c-41.76-8.4-86.379-9.323-74.287-42.058c20.236-52.582,118.71-45.184,168.229-82.54c61.327-46.263-29.039-69.973-20.37-145.145
				c4.637-33.491,28.691-73.179,58.397-136.035C1734.573,602.042,1892.38,816.57,1888.208,1075.212z"/>
			<path style="fill:#97AEEF;" d="M1281.2,1069.215c-11.76,27.805-52.554,49.03-61.329,74.614
				c-6.689,14.101,5.935,34.3,21.06,45.066c71.534,64.932-94.187,102.5-167.663,114.081
				c-120.935,18.259-68.451,86.707-25.173,75.298c43.279-11.407,47.986,47.896,22.876,102.642
				c-11.289,24.663-4.766,61.628,5.808,94.809c5.366,20.77,31.74,75.956,31.74,75.956c-62.7-15.642-191.783-76.196-258.59-157.063
				c-54.949-66.513,48.809-155.395,11.519-260.091c-15.57-57.04-107.609,31.93-112.822,0
				c-5.213-31.931,73.661-98.085,18.914-106.336c-54.776-8.251,29.041-109.195,84.414-147.351
				c55.491-38.305,57.04,14.148,104.519,9.561c41.202-0.769,80.603-61.63,116.789-63.448c28.685,3.31,29.638,88.557,94.423,73.456
				C1220.661,984.895,1302.018,1023.855,1281.2,1069.215z"/>
			<path style="fill:#97AEEF;" d="M1289,598c-53.718-1.628,2.524-59-62-59c-41,0-89.867,45.311-128.652,44.775
				c-38.577-0.533-26.965-28.009-19.375-38.191c28.167-37.792,88.442-59.456,162.332-74.106
				C977.996,484.3,746.25,678,692.431,944.586c3.733-18.489,61.902-67.697,72.816-11.79c7.954,52.284,35.214,47.805,77.591,31.353
				c33.78-13.114,15.669-34.6-33.984-41.302c-49.683-6.732-23.203-74.882,33.896-75.508c57.1-0.655,177.198-28.654,113.723-50.011
				c-63.444-21.386-45.066-40.33,52.959-51.381c87.512-10.011,3.319-55.931,5.568-99.928c2.199-43.023,29.948-9.597,85.63-15.12
				c59.318-5.884,109.511-85.336,127.763-27.294C1246.644,661.649,1346,651,1346,628C1346,607,1322,599,1289,598z"/>
		</g>
		<path style="fill:#FFFFFF;" d="M1116.486,786.6c8.185-5.843,13.654-12.429,17.211-17.944c-5.077-0.472-7.868-3.92-10.301-8.215
			c18.39-27.652,49.013-39.618,68.397-26.727c19.384,12.891,20.187,45.758,1.796,73.41c0,0-6.934-0.629-11.16-5.858
			c-3.281,5.896-7.861,12.136-14.18,17.342c-15.732,12.962-11.602,38.605-11.559,38.86c0.227,1.324-0.663,2.58-1.986,2.807
			c-0.299,0.051-0.595,0.045-0.876-0.01c-0.963-0.188-1.755-0.953-1.93-1.977c-0.199-1.164-4.667-28.662,13.259-43.433
			c6.644-5.474,11.227-12.327,14.323-18.507c-1.715-2.594-3.878-4.306-6.149-5.361c-3.61,6.892-9.629,15.443-19.546,23.465
			c-19.159,15.499-15.685,35.762-15.529,36.611c0.249,1.32-0.618,2.591-1.938,2.841c-0.313,0.059-0.623,0.055-0.918-0.002
			c-0.948-0.185-1.733-0.929-1.923-1.935c-0.183-0.968-4.234-23.916,17.249-41.295c8.806-7.123,14.322-14.75,17.736-21.005
			c-0.418-0.041-0.833-0.071-1.24-0.079c-3.593-0.065-6.726-0.948-9.368-2.615c-3.688,9.141-8.812,15.392-13.165,19.428
			c-15.804,14.654-20.413,26.264-21.754,31.88c-0.304,1.273-1.557,2.071-2.83,1.822c-0.033-0.006-0.066-0.014-0.1-0.022
			c-1.306-0.312-2.112-1.623-1.8-2.93c1.469-6.152,6.433-18.791,23.178-34.317c4.197-3.892,9.184-10.07,12.583-19.303
			c-1.105-1.339-2.066-2.895-2.874-4.671c-0.415-0.913-0.93-1.783-1.509-2.611c-6.553,4.705-14.031,11.92-18.113,22.118
			c-11.196,27.974-27.037,35.324-27.707,35.623c-0.474,0.212-0.979,0.26-1.453,0.167c-0.746-0.146-1.412-0.64-1.75-1.386
			c-0.552-1.22-0.01-2.658,1.207-3.216c0.147-0.067,14.791-7.02,25.188-32.995c4.431-11.071,12.276-18.843,19.267-23.95
			c-2.107-1.751-4.545-3.023-6.982-3.595c-3.734,6.347-9.946,14.417-19.929,21.544c-21.319,15.218-21.022,30.471-21.017,30.607
			c0.066,1.341-0.967,2.482-2.308,2.548c-0.202,0.01-0.399-0.005-0.589-0.042c-1.071-0.21-1.903-1.127-1.959-2.267
			C1093.4,820.681,1092.834,803.483,1116.486,786.6z"/>
		<path style="fill:#8097E0;" d="M1273.528,750.871c8.184-5.843,13.654-12.429,17.211-17.944c-5.077-0.472-7.868-3.92-10.301-8.215
			c18.39-27.652,49.013-39.618,68.397-26.727c19.384,12.891,20.187,45.758,1.796,73.41c0,0-6.934-0.629-11.16-5.858
			c-3.281,5.896-7.861,12.136-14.18,17.343c-15.733,12.962-11.602,38.604-11.559,38.86c0.227,1.324-0.663,2.58-1.987,2.807
			c-0.299,0.051-0.595,0.045-0.876-0.01c-0.963-0.188-1.755-0.953-1.93-1.977c-0.199-1.163-4.667-28.662,13.26-43.433
			c6.644-5.475,11.227-12.327,14.322-18.508c-1.715-2.594-3.878-4.306-6.149-5.361c-3.61,6.892-9.629,15.443-19.546,23.465
			c-19.159,15.498-15.685,35.761-15.529,36.611c0.249,1.32-0.618,2.591-1.938,2.841c-0.313,0.059-0.623,0.055-0.918-0.002
			c-0.948-0.185-1.733-0.929-1.923-1.936c-0.183-0.968-4.234-23.916,17.249-41.294c8.806-7.124,14.322-14.75,17.736-21.005
			c-0.418-0.041-0.833-0.071-1.24-0.078c-3.594-0.065-6.726-0.948-9.368-2.615c-3.688,9.141-8.812,15.392-13.165,19.428
			c-15.805,14.654-20.414,26.264-21.754,31.88c-0.304,1.273-1.557,2.071-2.83,1.822c-0.033-0.007-0.066-0.014-0.099-0.022
			c-1.307-0.312-2.112-1.623-1.801-2.93c1.468-6.152,6.432-18.79,23.178-34.317c4.197-3.892,9.183-10.07,12.582-19.303
			c-1.105-1.339-2.066-2.895-2.874-4.671c-0.415-0.913-0.93-1.783-1.509-2.611c-6.553,4.705-14.031,11.92-18.113,22.118
			c-11.196,27.974-27.037,35.323-27.706,35.623c-0.474,0.212-0.979,0.26-1.453,0.167c-0.746-0.146-1.412-0.64-1.75-1.386
			c-0.552-1.22-0.01-2.658,1.207-3.216c0.147-0.067,14.791-7.02,25.187-32.995c4.431-11.072,12.276-18.843,19.267-23.95
			c-2.107-1.751-4.545-3.023-6.982-3.595c-3.734,6.347-9.945,14.417-19.928,21.544c-21.319,15.218-21.023,30.471-21.018,30.607
			c0.066,1.341-0.967,2.482-2.308,2.548c-0.202,0.01-0.399-0.005-0.589-0.042c-1.071-0.209-1.903-1.127-1.959-2.267
			C1250.442,784.952,1249.876,767.755,1273.528,750.871z"/>
		<path style="fill:#8097E0;" d="M1445.875,1360.503l-17.475,8.601l0.002,0.002c-5.183-3.304-12.419-6.664-20.432-6.664
			c-15.758,0-28.533,12.999-28.533,12.999s12.775,12.999,28.533,12.999c8.013,0,15.25-3.361,20.432-6.665l-0.003,0.002l17.475,8.602
			l-9.372-14.938L1445.875,1360.503z"/>
		<path style="fill:#8097E0;" d="M1477.388,1463.296l-24.789,12.201l0.003,0.003c-7.352-4.687-17.617-9.454-28.983-9.454
			c-22.353,0-40.474,18.439-40.474,18.439s18.121,18.439,40.474,18.439c11.366,0,21.631-4.767,28.983-9.454l-0.004,0.003
			l24.789,12.201l-13.294-21.189L1477.388,1463.296z"/>
		<path style="fill:#8097E0;" d="M1382.875,1536.35l-17.475,8.601l0.002,0.002c-5.183-3.304-12.419-6.665-20.432-6.665
			c-15.758,0-28.533,12.999-28.533,12.999s12.775,12.999,28.533,12.999c8.013,0,15.25-3.361,20.432-6.665l-0.003,0.002l17.475,8.602
			l-9.372-14.938L1382.875,1536.35z"/>
		<path style="fill:#EB5648;" d="M1213.313,1419.205c0,0,27.653-19.592,61.764-19.592c0.096,0,0.191,0.005,0.288,0.005
			c2.64-2.895,9.692-9.328,20.893-10.21l-5.765,11.491c11.125,1.819,21.038,5.307,28.813,8.758l-0.005-0.003l37.828-12.964
			l-20.287,22.514l20.287,22.514l-37.828-12.964l0.005-0.003c-11.219,4.98-26.884,10.045-44.229,10.045
			C1240.966,1438.797,1213.313,1419.205,1213.313,1419.205z"/>
		<path style="fill:#3A72AA;" d="M1147.127,1502.991c0,0,27.653-19.592,61.764-19.592c0.097,0,0.192,0.005,0.288,0.005
			c2.64-2.895,9.692-9.328,20.893-10.21l-5.765,11.491c11.125,1.819,21.038,5.307,28.813,8.758l-0.005-0.003l37.828-12.964
			l-20.287,22.514l20.287,22.514l-37.828-12.964l0.005-0.003c-11.219,4.979-26.884,10.045-44.229,10.045
			C1174.78,1522.583,1147.127,1502.991,1147.127,1502.991z"/>
		<g>
			<path style="fill:#527FBF;" d="M1801.729,765.103c-12.511-20.686-8.197-41.022-12.079-52.658
				c-3.868-11.592-10.733-27.508-23.411-27.629v-0.003c-0.048,0.001-0.097,0.001-0.145,0v0.003
				c-12.678,0.121-19.543,16.037-23.411,27.629c-3.883,11.636,0.431,31.972-12.079,52.658c-12.496,20.661-5.147,51.75,35.49,52.202
				v0.002c0.048-0.001,0.097-0.001,0.145,0v-0.002C1806.876,816.853,1814.225,785.764,1801.729,765.103z"/>
			<path style="fill:#3B679B;" d="M1779.734,739.223c-0.717-0.717-1.879-0.717-2.595,0l-10.044,10.047v-23.894
				c0-1.014-0.822-1.835-1.835-1.835c-1.013,0-1.835,0.822-1.835,1.835v59.555l-7.631-7.633c-0.717-0.717-1.879-0.717-2.595,0
				c-0.716,0.717-0.716,1.879,0,2.595l10.226,10.229v71.485c0,1.014,0.822,1.835,1.835,1.835c1.013,0,1.835-0.822,1.835-1.835
				V754.46l12.638-12.642C1780.45,741.102,1780.45,739.94,1779.734,739.223z"/>
		</g>
		<g>
			<path style="fill:#7689D6;" d="M1742.496,786.122c2.607-10.229-7.773-13.552-11.753-16.227
				c-6.088-4.092-5.795-7.873-6.088-13.895c-1-20.497-25.873-20.576-25.412,0.001c0.421,18.786-20.754,12.693-17.842,30.121
				c2.963,11.625-6.714,15.975-5.585,24.99c1.127,9.007,17.238,14.907,36.108,14.918v0c0.017,0,0.035,0,0.052,0v0
				c18.87-0.011,34.98-5.911,36.107-14.918C1749.211,802.096,1739.534,797.747,1742.496,786.122z"/>
			<path style="fill:#3B679B;" d="M1731.244,796.264c-0.717-0.717-1.879-0.717-2.595,0l-14.865,14.869v-49.603
				c0-1.014-0.822-1.835-1.835-1.835c-1.013,0-1.835,0.822-1.835,1.835v31.65l-12.534-13.573c-0.688-0.744-1.849-0.791-2.593-0.103
				c-0.745,0.688-0.791,1.849-0.103,2.594l15.23,16.492v58.898c0,1.014,0.822,1.835,1.835,1.835c1.013,0,1.835-0.822,1.835-1.835
				v-41.163l17.46-17.464C1731.96,798.142,1731.96,796.98,1731.244,796.264z"/>
		</g>
		<g>
			<path style="fill:#527FBF;" d="M1537.321,590.884c-4.064-15.949,12.119-21.13,18.325-25.301
				c9.493-6.38,9.493-12.264,9.493-21.666c3.113-31.845,36.482-31.936,39.623,0.001c-4.17,29,32.36,19.79,27.82,46.965
				c-4.621,18.125,10.468,24.908,8.709,38.965c-1.758,14.044-26.878,23.244-56.299,23.261v0c-0.027,0-0.055,0-0.082,0v0
				c-29.422-0.017-54.542-9.217-56.299-23.261C1526.851,615.792,1541.94,609.009,1537.321,590.884z"/>
			<path style="fill:#3B679B;" d="M1610.702,581.318c-0.743-0.687-1.903-0.642-2.593,0.103l-21.324,23.09v-51.973
				c0-1.014-0.822-1.835-1.835-1.835c-1.013,0-1.835,0.822-1.835,1.835v79.82l-24.929-24.935c-0.716-0.717-1.879-0.717-2.595,0
				c-0.717,0.717-0.717,1.879,0,2.595l27.523,27.531v64.608c0,1.014,0.822,1.835,1.835,1.835c1.013,0,1.835-0.821,1.835-1.835
				v-92.236l24.02-26.01C1611.493,583.167,1611.447,582.006,1610.702,581.318z"/>
		</g>
		<g>
			<path style="fill:#7689D6;" d="M1611.418,630.962c10.56-14.87,6.918-29.489,10.196-37.854c3.265-8.333,9.059-19.775,19.76-19.862
				v-0.002c0.041,0.001,0.082,0.001,0.123,0v0.002c10.701,0.087,16.495,11.529,19.76,19.862c3.277,8.365-0.364,22.984,10.196,37.854
				c10.547,14.853,4.344,37.202-29.956,37.526v0.002c-0.041-0.001-0.082-0.001-0.123,0v-0.002
				C1607.074,668.164,1600.871,645.814,1611.418,630.962z"/>
			<path style="fill:#3B679B;" d="M1652.681,639.471c-0.657-0.772-1.815-0.864-2.587-0.207l-6.06,5.163v-42.024
				c0-1.014-0.822-1.835-1.835-1.835s-1.835,0.821-1.835,1.835v16.388l-8.097-6.898c-0.771-0.657-1.929-0.564-2.587,0.207
				c-0.657,0.772-0.564,1.93,0.207,2.587l10.476,8.925v76.723c0,1.014,0.822,1.835,1.835,1.835s1.835-0.822,1.835-1.835v-51.087
				l8.439-7.19C1653.245,641.401,1653.337,640.243,1652.681,639.471z"/>
		</g>
		<g>
			<path style="fill:#527FBF;" d="M1476.321,837.884c-4.064-15.949,12.119-21.13,18.325-25.301
				c9.493-6.38,9.493-12.264,9.493-21.666c3.113-31.845,36.482-31.936,39.623,0.001c-4.17,29,32.36,19.79,27.82,46.965
				c-4.621,18.125,10.468,24.908,8.709,38.965c-1.758,14.044-26.878,23.244-56.299,23.261v0c-0.027,0-0.055,0-0.082,0v0
				c-29.422-0.017-54.542-9.217-56.299-23.261C1465.851,862.792,1480.94,856.009,1476.321,837.884z"/>
			<path style="fill:#3B679B;" d="M1549.702,828.318c-0.743-0.687-1.903-0.642-2.593,0.103l-21.324,23.09v-51.973
				c0-1.014-0.822-1.835-1.835-1.835c-1.013,0-1.835,0.822-1.835,1.835v79.82l-24.929-24.935c-0.716-0.717-1.879-0.717-2.595,0
				c-0.717,0.717-0.717,1.879,0,2.595l27.523,27.531v64.608c0,1.014,0.822,1.835,1.835,1.835c1.013,0,1.835-0.821,1.835-1.835
				v-92.236l24.02-26.01C1550.493,830.167,1550.447,829.006,1549.702,828.318z"/>
		</g>
		<g>
			<path style="fill:#7689D6;" d="M1550.418,877.962c10.56-14.87,6.918-29.489,10.196-37.854c3.265-8.333,9.059-19.775,19.76-19.862
				v-0.002c0.041,0.001,0.082,0.001,0.123,0v0.002c10.701,0.087,16.495,11.529,19.76,19.862c3.277,8.365-0.364,22.984,10.196,37.854
				c10.547,14.853,4.344,37.202-29.956,37.526v0.002c-0.041-0.001-0.082-0.001-0.123,0v-0.002
				C1546.074,915.164,1539.871,892.814,1550.418,877.962z"/>
			<path style="fill:#3B679B;" d="M1591.681,886.471c-0.657-0.772-1.815-0.864-2.587-0.207l-6.06,5.163v-42.024
				c0-1.014-0.822-1.835-1.835-1.835s-1.835,0.821-1.835,1.835v16.388l-8.097-6.898c-0.771-0.657-1.929-0.564-2.587,0.207
				c-0.657,0.772-0.564,1.93,0.207,2.587l10.476,8.925v76.723c0,1.014,0.822,1.835,1.835,1.835s1.835-0.822,1.835-1.835v-51.087
				l8.439-7.19C1592.245,888.401,1592.337,887.243,1591.681,886.471z"/>
		</g>
		<path style="fill:#3A5C99;" d="M1191.146,1027.87c-13.475-27.287-30.354-33.561-40.874-34.51
			c13.956-4.016,17.544-20.369,17.544-20.369c-20.012,4.109-25.552,12.232-27.038,17.093c1.836-22.554-15.115-30.083-15.115-30.083
			c-0.96,9.172,1.22,16.47,4.169,21.918c-9.853-8.339-27.127-16.902-53.745-10.783c0,0,8.64,28.368,54.032,24.261
			c-14.82,3.015-41.428,12.583-49.128,42.744c0,0,30.141-3.589,48.62-25.279c-23.854,46.79-34.284,99.808-35.472,152.075
			l18.157-1.063c-3.945-50.899,1.152-103.529,19.994-151.25c-4.613,14.767-6.521,36.012,9.404,55.208c0,0,13.591-24.31,8.859-50.702
			C1165.873,1034.188,1191.146,1027.87,1191.146,1027.87z"/>
		<path style="fill:#3A5C99;" d="M994.118,1283.131c-10.895-22.062-24.542-27.135-33.048-27.902
			c11.284-3.247,14.185-16.469,14.185-16.469c-16.18,3.323-20.66,9.89-21.861,13.82c1.484-18.236-12.221-24.323-12.221-24.323
			c-0.776,7.416,0.987,13.316,3.37,17.721c-7.966-6.742-21.933-13.666-43.455-8.718c0,0,6.986,22.936,43.687,19.616
			c-11.983,2.438-33.496,10.173-39.722,34.56c0,0,24.37-2.902,39.31-20.439c-19.287,37.832-27.72,80.698-28.68,122.958l14.681-0.86
			c-3.19-41.153,0.931-83.707,16.166-122.29c-3.73,11.94-5.273,29.117,7.603,44.638c0,0,10.989-19.656,7.163-40.994
			C973.683,1288.24,994.118,1283.131,994.118,1283.131z"/>
		<path style="fill:#3A5C99;" d="M1030.233,1067.647c-5.774-22.619-25.728-29.794-36.843-32.055
			c34.041,3.08,40.521-18.194,40.521-18.194c-19.962-4.589-32.917,1.833-40.305,8.087c2.211-4.086,3.846-9.558,3.126-16.437
			c0,0-12.712,5.647-11.335,22.561c-1.114-3.645-5.27-9.737-20.277-12.818c0,0,2.691,12.264,13.157,15.275
			c-7.89,0.712-20.548,5.417-30.653,25.88c0,0,18.953,4.738,30.443-8.055c-3.549,19.792,6.644,38.023,6.644,38.023
			c11.943-14.396,10.512-30.328,7.052-41.402c14.131,35.799,17.953,75.248,14.994,113.427l13.617,0.797
			c-0.89-39.195-8.715-78.959-26.602-114.046C1007.629,1064.956,1030.233,1067.647,1030.233,1067.647z"/>
		<g id="_x36_">
			<g>
				<polygon style="fill:#3A5C99;" points="1014.306,691.053 863.677,691.053 915.646,574.403 915.646,574.401 938.991,522 
					961.313,572.107 				"/>
			</g>
			<path style="fill:#FFFFFF;" d="M961.313,572.107c-5.858,0.537-9.043-10.565-10.874-16.032c-1.829-5.466-5.751-4.184-5.62,5.119
				c0.13,9.303-3.007,10.752-6.667,8.245c-3.659-2.507-0.522-15.667-4.573-16.716c-4.053-1.047-7.843,10.575-10.85,16.842
				c-3.007,6.266-7.084,4.839-7.084,4.839s0,0,0-0.002L938.991,522L961.313,572.107z"/>
		</g>
		<g id="_x35_">
			<polygon style="fill:#6A84C6;" points="868.045,617 821.621,697.408 914.469,697.408 			"/>
			<path style="fill:#FFFFFF;" d="M891.001,656.761c-3.036,4.176-8.974-3.142-13.85-12.181c-3.008-5.575-4.688-2.284-4.581,5.59
				c0.105,7.873-3.699,8.943-5.411,6.977c-1.753-2.014-1.683-14.583-4.653-14.689c-3.758-0.134-6.578,9.081-9.547,14.109
				c-5.608,9.497-9.148,2.411-9.148,2.409L868.045,617L891.001,656.761z"/>
		</g>
		<g id="_x34_">
			<polygon style="fill:#6A84C6;" points="929.514,633.966 872.312,733.043 986.716,733.043 			"/>
			<path style="fill:#FFFFFF;" d="M901.061,683.248c3.741,5.146,11.332-4.161,17.341-15.299c3.706-6.869,5.776-2.814,5.645,6.888
				c-0.13,9.701,4.558,11.02,6.667,8.597c2.16-2.481,2.074-17.968,5.733-18.099c4.63-0.165,8.106,11.19,11.764,17.384
				c6.91,11.702,11.22,3.068,11.22,3.066l-29.918-51.819L901.061,683.248z"/>
		</g>
		<g>
			
				<ellipse transform="matrix(0.451 -0.8925 0.8925 0.451 -371.0003 2278.2468)" style="fill:#6A84C6;" cx="1666.516" cy="1440.714" rx="19.375" ry="16.702"/>
			<path style="fill:#6A84C6;" d="M1665.03,1414.684c-0.482,4.635-3.935,8.073-7.711,7.68s-6.447-4.469-5.964-9.104
				c0.482-4.635,3.935-8.073,7.711-7.68C1662.842,1405.974,1665.512,1410.049,1665.03,1414.684z"/>
			<path style="fill:#6A84C6;" d="M1680.526,1414.068c-1.453,4.427-5.556,7.056-9.163,5.872s-5.354-5.733-3.9-10.161
				c1.453-4.427,5.556-7.056,9.163-5.872S1681.979,1409.641,1680.526,1414.068z"/>
			
				<ellipse transform="matrix(0.5448 -0.8386 0.8386 0.5448 -422.9265 2061.2444)" style="fill:#6A84C6;" cx="1687.076" cy="1420.165" rx="8.437" ry="6.875"/>
			<path style="fill:#6A84C6;" d="M1699.037,1439.1c-2.539,3.908-7.177,5.399-10.362,3.33c-3.184-2.068-3.707-6.913-1.169-10.821
				c2.538-3.908,7.177-5.399,10.361-3.33S1701.576,1435.192,1699.037,1439.1z"/>
		</g>
		<g>
			
				<ellipse transform="matrix(0.451 -0.8925 0.8925 0.451 -259.4452 2241.6162)" style="fill:#6A84C6;" cx="1692.516" cy="1331.714" rx="19.375" ry="16.702"/>
			<path style="fill:#6A84C6;" d="M1691.03,1305.684c-0.482,4.635-3.935,8.073-7.711,7.68s-6.447-4.469-5.964-9.104
				c0.482-4.635,3.935-8.073,7.711-7.68C1688.842,1296.974,1691.512,1301.049,1691.03,1305.684z"/>
			<path style="fill:#6A84C6;" d="M1706.526,1305.068c-1.453,4.427-5.556,7.056-9.163,5.872s-5.354-5.733-3.9-10.161
				c1.453-4.427,5.556-7.056,9.163-5.872S1707.979,1300.641,1706.526,1305.068z"/>
			
				<ellipse transform="matrix(0.5448 -0.8386 0.8386 0.5448 -319.6852 2033.4281)" style="fill:#6A84C6;" cx="1713.076" cy="1311.165" rx="8.437" ry="6.875"/>
			<path style="fill:#6A84C6;" d="M1725.037,1330.1c-2.539,3.908-7.177,5.399-10.362,3.33c-3.184-2.068-3.707-6.913-1.169-10.821
				c2.538-3.908,7.177-5.399,10.361-3.33S1727.576,1326.192,1725.037,1330.1z"/>
		</g>
		<g>
			
				<ellipse transform="matrix(0.451 -0.8925 0.8925 0.451 -162.9916 2204.4329)" style="fill:#6A84C6;" cx="1710.516" cy="1234.714" rx="19.375" ry="16.702"/>
			<path style="fill:#6A84C6;" d="M1709.03,1208.684c-0.482,4.635-3.935,8.073-7.711,7.68s-6.447-4.469-5.964-9.104
				c0.482-4.635,3.935-8.073,7.711-7.68C1706.842,1199.974,1709.512,1204.049,1709.03,1208.684z"/>
			<path style="fill:#6A84C6;" d="M1724.526,1208.068c-1.453,4.427-5.556,7.056-9.163,5.872s-5.354-5.733-3.9-10.161
				c1.453-4.427,5.556-7.056,9.163-5.872S1725.979,1203.641,1724.526,1208.068z"/>
			
				<ellipse transform="matrix(0.5448 -0.8386 0.8386 0.5448 -230.1488 2004.3658)" style="fill:#6A84C6;" cx="1731.076" cy="1214.165" rx="8.437" ry="6.875"/>
			<path style="fill:#6A84C6;" d="M1743.037,1233.1c-2.539,3.908-7.177,5.399-10.362,3.33c-3.184-2.068-3.707-6.913-1.169-10.821
				c2.538-3.908,7.177-5.399,10.361-3.33S1745.576,1229.192,1743.037,1233.1z"/>
		</g>
		<g>
			
				<ellipse transform="matrix(0.0622 -0.9981 0.9981 0.0622 133.4004 2901.416)" style="fill:#6A84C6;" cx="1610.599" cy="1379.723" rx="19.374" ry="16.702"/>
			<path style="fill:#6A84C6;" d="M1625.044,1358.017c-1.927,4.243-0.688,8.955,2.769,10.525c3.457,1.571,7.822-0.596,9.749-4.838
				c1.927-4.242,0.688-8.955-2.769-10.525C1631.337,1351.609,1626.972,1353.775,1625.044,1358.017z"/>
			<path style="fill:#6A84C6;" d="M1611.987,1349.65c-0.985,4.555,1.225,8.897,4.936,9.7c3.711,0.803,7.518-2.239,8.503-6.793
				c0.985-4.555-1.225-8.897-4.936-9.7C1616.779,1342.054,1612.972,1345.096,1611.987,1349.65z"/>
			<path style="fill:#6A84C6;" d="M1596.386,1351.914c0.214,4.655,3.462,8.287,7.255,8.113c3.793-0.174,6.694-4.089,6.48-8.744
				c-0.214-4.655-3.462-8.287-7.255-8.113C1599.073,1343.344,1596.172,1347.259,1596.386,1351.914z"/>
			<path style="fill:#6A84C6;" d="M1583.359,1361.886c0.214,4.655,3.462,8.287,7.255,8.112s6.694-4.089,6.48-8.744
				c-0.214-4.655-3.462-8.287-7.255-8.112C1586.046,1353.316,1583.145,1357.231,1583.359,1361.886z"/>
		</g>
		<g>
			
				<ellipse transform="matrix(0.0622 -0.9981 0.9981 0.0622 247.8506 2835.2183)" style="fill:#6A84C6;" cx="1632.599" cy="1285.723" rx="19.374" ry="16.702"/>
			<path style="fill:#6A84C6;" d="M1647.044,1264.017c-1.927,4.243-0.688,8.955,2.769,10.525c3.457,1.571,7.822-0.596,9.749-4.838
				c1.927-4.242,0.688-8.955-2.769-10.525C1653.337,1257.609,1648.972,1259.775,1647.044,1264.017z"/>
			<path style="fill:#6A84C6;" d="M1633.987,1255.65c-0.985,4.555,1.225,8.897,4.936,9.7c3.711,0.803,7.518-2.239,8.503-6.793
				c0.985-4.555-1.225-8.897-4.936-9.7C1638.779,1248.054,1634.972,1251.096,1633.987,1255.65z"/>
			<path style="fill:#6A84C6;" d="M1618.386,1257.914c0.214,4.655,3.462,8.287,7.255,8.113c3.793-0.174,6.694-4.089,6.48-8.744
				c-0.214-4.655-3.462-8.287-7.255-8.113C1621.073,1249.344,1618.172,1253.259,1618.386,1257.914z"/>
			<path style="fill:#6A84C6;" d="M1605.359,1267.886c0.214,4.655,3.462,8.287,7.255,8.112s6.694-4.089,6.48-8.744
				c-0.214-4.655-3.462-8.287-7.255-8.112C1608.046,1259.316,1605.145,1263.231,1605.359,1267.886z"/>
		</g>
	</g>
	<g id="_x32_">
		<path style="fill:#CE4ABF;" d="M1824.406,1125.391c-1.467,0.759,18.17,0.607,16.905,2.075
			c-41.344,35.756-103.023,47.077-148.8,12.248v-0.05c-13.621-9.967-27.382-26.001-36.947-42.769l11.236-18.22
			c89.239,55.044,124.564-38.894,197.135-46.21l-14.525,21.206L1824.406,1125.391z"/>
		<path style="fill:#F99370;" d="M1923.49,1754.652l1.362-0.71c0,0.953,1.179,4.263,2.132,4.263l40.266,0.829
			c0.953,0,1.54-1.795,1.54-2.748l3.434-0.983c0-6.03-0.496-8.216-3.16-12.882c-9.79-13.011,1.897-71.202,1.559-86.405
			c2.414-4.157-42.403-0.895-43.028-1.877c-1.007,0.001-1.8,0.86-1.721,1.863l5.275,66.491
			C1933.516,1735.12,1923.827,1742.751,1923.49,1754.652z"/>
		<path style="fill:#F99370;" d="M1748.942,1760.446h80.206c7.001-0.282,6.948-7.423,5.657-12.96
			c-4.416-19.96,3.39-65.792,4.837-86.319c0.385-3.758-2.564-7.026-6.343-7.026h-35.398c-3.837,0-6.804,3.363-6.327,7.17
			l6.438,51.33c3.498,22.301-23.102,26.552-38.268,29.017C1749.76,1742.381,1733.062,1756.01,1748.942,1760.446z"/>
		<path style="fill:#3A72AA;" d="M1837.859,1752.126c-0.216,3.933-2.166,8.419-6.721,8.321c0,0-83.196,0-83.196,0
			c-19.623-7.278,8.566-33.307,46.978-33.152c16.698,4.582,27.516,3.181,38.566,1.817
			C1833.485,1729.112,1838.947,1736.093,1837.859,1752.126z"/>
		<path style="fill:#3A72AA;" d="M1965.845,1760.447h-35.558c-17.329-2.366-4.97-32.982,17.774-33.21
			C1970.922,1727.007,1983.16,1758.113,1965.845,1760.447z"/>
		<path style="fill:#23659B;" d="M1742.12,1752.126h95.739c-0.352,2.922-1.16,5.761-2.625,8.321h-87.292
			C1743.643,1760.453,1740.594,1756.144,1742.12,1752.126z"/>
		<path style="fill:#23659B;" d="M1965.845,1760.447h-35.558c-4.524,0.005-8.164-3.807-7.885-8.321h51.33
			C1974.005,1756.639,1970.368,1760.453,1965.845,1760.447z"/>
		<path style="fill:#1D3F70;" d="M1852.789,940.945c0,0-0.421-25.996,23.078-30.612l12.318,12.779L1852.789,940.945z"/>
		<path style="fill:#EB5648;" d="M1976.234,1715.071c0,0-37.924,9.212-57.462-0.686c-10.17-63.772-38.399-241.339-48.231-363.019
			c-0.376,7.095-21.033,293.243-24.964,363.019c-13.489,4.514-40.613,9.958-55.792-0.974
			c-6.818-73.454-28.712-315.293,4.268-512.806c0,0,90.378,10.054,160.957-11.274
			C1974.437,1251.983,1979.583,1639.888,1976.234,1715.071z"/>
		<path style="fill:#CE3932;" d="M1804.374,1707.313c-9.268-211.104,11.996-392.666,8.807-394.831
			C1807.605,1312.929,1786.228,1496.113,1804.374,1707.313z"/>
		<path style="fill:#CE3932;" d="M1946.393,1707.313c-3.681-216.926-35.916-422.396-40.784-423.177
			C1901.963,1286.867,1933.647,1489.97,1946.393,1707.313z"/>
		<path style="fill:#F99370;" d="M1863.275,1031.747c-1.973-17.198,0.72-42.013,3.117-52.22
			c4.324-20.135,36.255-12.343,30.948,7.449c-1.029-0.647-4.325,35.84-2.05,45.968
			C1925.255,1041.934,1835.135,1071.493,1863.275,1031.747z"/>
		<path style="fill:#E57D61;" d="M1897.647,985.316c-0.078,0.555-0.177,1.118-0.306,1.66c-0.742-0.492-2.82,19.64-2.839,34.251
			c-13.73,6.243-29.037,3.497-31.839,2.922c-0.3-18.508,1.4-35.37,4.119-45.959C1872.347,960.273,1900.488,966.802,1897.647,985.316
			z"/>
		<path style="fill:#F99370;" d="M1918.938,977.803c-4.547,13.758-11.874,28.911-24.531,36.46l-0.018-0.003
			c-5.14,3.033-10.968,4.514-16.987,4.73c-33.809,4.561-67.113-41.467-36.688-64.371c5.014-3.573,9.405-8.757,12.072-13.674
			C1879.895,888.678,1935.483,929.699,1918.938,977.803z"/>
		<path style="fill:#F9F8F3;" d="M1848.365,983.237l20.041-6.484C1868.513,988.096,1855.131,993.565,1848.365,983.237z"/>
		<path style="fill:#A523A2;" d="M1804.617,1104.487l-13.918,51.068c-29.811,9.161-61.595,7.085-89.634-10.122
			c30.822,17.41,73.185,7.592,79.866-2.632C1787.965,1131.97,1803.656,1106.056,1804.617,1104.487z"/>
		<path style="fill:#CE4ABF;" d="M1968.161,1274.608c-3.228,3.924-6.67,7.858-10.316,11.81c0,0-17.756,3.34-31.663-15.159
			c56.709-120.215-52.775-131.433-30.892-238.318C1968.439,1041.579,2070.198,1150.751,1968.161,1274.608z"/>
		<path style="fill:#C16256;" d="M1866.441,960.429c-0.898-2.662,3.304-4.012,4.123-1.324
			C1871.462,961.767,1867.26,963.116,1866.441,960.429z"/>
		<path style="fill:#C16256;" d="M1848.952,954.518c-0.898-2.662,3.304-4.012,4.124-1.324
			C1853.974,955.856,1849.772,957.205,1848.952,954.518z"/>
		<path style="fill:#E57D61;" d="M1918.938,977.803c-4.547,13.758-11.874,28.911-24.531,36.46l-0.018-0.003
			c-1.048,0.621-2.135,1.179-3.247,1.668c9.845-7.062,17.669-24.343,17.669-24.343l0.463-15.627
			c-11.471-16.088-3.061-30.757-3.061-30.757c-23.951,2.746-29.399-12.637-29.399-12.637c-7.395-0.23-14.455-5.316-14.455-5.316
			C1893.287,893.434,1933.22,941.608,1918.938,977.803z"/>
		<path style="fill:#C16256;" d="M1848.365,984.057c0.45-0.513,21.849-5.979,20.821-7.556c0.411-1.998-20.666,6.245-21.073,5.956
			C1847.238,982.713,1847.465,984.087,1848.365,984.057z"/>
		<path style="fill:#C16256;" d="M1854.161,974.321c1.408,0.437,2.61-1.532,0.78-1.696c-2.88,0.543-9.175-2.424-5.7-3.85
			c4.98-1.699,12.75-13.099,8.207-11.059c-0.044,0.08-4.36,7.975-8.748,9.514C1842.687,970.21,1850,974.328,1854.161,974.321z"/>
		<path style="fill:#A523A2;" d="M1968.161,1274.608c-3.228,3.924-6.67,7.858-10.316,11.81c0,0-18.083,2.532-31.989-15.967
			c2.044-4.963,4.302-8.187,6.041-13.119C1931.897,1257.333,1942.64,1269.357,1968.161,1274.608z"/>
		<path style="fill:#CE3932;" d="M1959.121,1288.796c3.829,1.149,7.857-3.384,2.656-4.698c-28.141,1.228-35.64-17.349-35.945-18.141
			C1913.632,1259.089,1928.622,1290.485,1959.121,1288.796z"/>
		<path style="fill:#F4D4BE;" d="M1780.911,1285.511c0,0,5.52,23.681,49.697,35.361c12.653,3.345,19.965,1.692,21.82-7.081
			c0.932-4.406,3.337-12.071,7.759-14.913c0,0,9.884,4.269,13.614,10.325c8.177,13.277,20.497,1.214,26.494-12.681
			c7.418-17.189,29.01-33.5,33.12-47.918L1780.911,1285.511z"/>
		<path style="fill:#CE4ABF;" d="M1960.927,1256.239c-1.439,2.544-2.297,2.141-3.768,0.665
			c-39.684-29.639-53.892,35.121-96.655,36.282c-43.528,4.308-67.741,6.766-79.597-7.678
			c-20.699-32.083,12.223-175.497,38.852-210.226c11.665-18.056,32.36-34.149,43.5-43.519c-0.228,0.941-6.158,25.604,32.034,1.178
			c1.921,0.81,14.028,12.622,13.265,18.945C1910.497,1080.922,1979.388,1223.621,1960.927,1256.239z"/>
		<path style="fill:#1D3F70;" d="M1850.718,903.896c0,0,11.198-3.084,22.675,1.423c1.316-4.353,3.998-8.37,8.354-11.55
			c1.871,5.29,4.531,10.369,7.561,15.103c1.037-9.947,7.169-18.013,7.169-18.013c1.639,9.529,14.81,16.383,21.021,26.698
			c0,0,35.126,12.044,10.052,42.882l-0.001-0.001c-1.033,11.413-6.603,22.957-6.603,22.957
			c-18.436-16.839-14.464-37.076-6.087-42.339c-15.026,5.328-28.409-0.987-35.967-10.96
			C1867.716,928.243,1854.055,922.159,1850.718,903.896z"/>
		<path style="fill:#A523A2;" d="M1937.957,1265.358l-8.702-1.809c34.787-78.311-6.125-111.418-27.766-155.539
			C1951.67,1166.081,1959.265,1197.918,1937.957,1265.358z"/>
		<path style="fill:#F99370;" d="M1926.765,986.381c-5.758,15.462-25.188,7.978-19.083-7.352
			C1913.439,963.568,1932.87,971.052,1926.765,986.381z"/>
		<path style="fill:#C16256;" d="M1921.266,988.891c3.551-3.718,3.549-9.962,1.93-11.698c-2.951-3.03-8.545-2.671-8.554-0.913
			c0.752,1.773,4.548-1.129,7.266,1.926C1924.84,980.511,1918.979,987.949,1921.266,988.891z"/>
		<path style="fill:#C16256;" d="M1913.896,986.544c1.252-0.088,3.285-5.766,9.477-5.395c0.447,0.05,0.849-0.29,0.892-0.74
			C1920.229,976.323,1910.242,986.624,1913.896,986.544z"/>
		<path style="fill:#F4D4BE;" d="M1907.037,1035.038c0.206,14.57-37.17,27.432-39.288,27.451l-4.481-13.257
			c-5.752,1.42-10.817,9.472-10.817,9.472c-16.579-15.795-0.989-29.565,10.817-26.959c0,0,0,0.009-0.009,0.019
			c-0.23,0.941-2.836,22.559,31.891,0.428C1899.62,1030.122,1907.037,1035.038,1907.037,1035.038z"/>
		<path style="fill:#CE3932;" d="M1845.576,1714.385c0.03-0.055-4.899,1.816-11.708,3.117c0,0,19.055-283.969,21.894-321.866
			c2.839-37.896,14.778-44.27,14.778-44.27S1845.261,1708.253,1845.576,1714.385z"/>
		<path style="fill:#CE3932;" d="M1846.328,1700.618c-0.51,8.192-0.789,13.09-0.751,13.767c-13.489,4.514-40.613,9.958-55.792-0.974
			c0,0-0.482-4.499-1.271-12.793C1788.513,1700.618,1815.101,1712.845,1846.328,1700.618z"/>
		<path style="fill:#CE3932;" d="M1976.234,1715.071c0,0-37.924,9.212-57.462-0.686c0,0-0.807-4.935-2.217-13.767
			c0,0,26.731,6.704,60.156-0.782C1976.859,1708.445,1976.113,1714.357,1976.234,1715.071z"/>
		<path style="fill:#A523A2;" d="M1676.657,1084.273c-0.051,11.642-15.881,21.025-15.881,21.025
			c-1.772-2.683-3.544-5.517-5.213-8.403l11.236-18.22L1676.657,1084.273z"/>
		<path style="fill:#F99370;" d="M1650.298,1045.912c-4.35,2.797,2.784,11.406,2.242,16.092c-7.212-3.287-13.529-8.685-13.581-8.675
			c-6.183-7.624-11.942-15.569-17.345-23.777c-13.322-6.102,7.808,24.065,9.401,27.779c-0.036,0.033-0.07,0.069-0.106,0.103
			c-7.999-6.459-15.659-13.368-22.687-20.876c-14.989-3.128,15.226,24.444,17.975,27.724c-0.01,0.022-0.02,0.045-0.03,0.067
			c-8.552-4.802-16.522-10.652-23.767-17.273c-15.372-1.809,17.459,23.836,21.11,26.135c-0.007,0.038-0.014,0.076-0.021,0.115
			c-6.507-0.865-19.894-12.895-24.191-9.986c-4.074,6.599,39.887,30.274,55.292,33.248c5.543,1.525,13.542-12.417,12.186-17.897
			c-1.271-5.138-4.817-11.425-6.033-13.732C1658.824,1059.597,1656.677,1046.337,1650.298,1045.912z"/>
		<path style="fill:#395B96;" d="M1692.459,1139.563c0.456,0.353,0.912,0.708,1.367,1.113c-0.455-0.355-0.86-0.658-1.315-0.962
			v-0.05C1692.459,1139.612,1692.459,1139.563,1692.459,1139.563z"/>
		<path style="fill:#C16256;" d="M1878.154,959.874c-0.42,0-0.8-0.283-0.909-0.708c-0.064-0.246-1.647-5.962-10.37-8.936
			c-0.491-0.167-0.754-0.7-0.586-1.192c0.167-0.491,0.7-0.757,1.192-0.586c9.752,3.325,11.517,9.972,11.588,10.253
			c0.126,0.504-0.181,1.013-0.684,1.14C1878.307,959.864,1878.23,959.874,1878.154,959.874z"/>
		<path style="fill:#C16256;" d="M1849.909,947.721c-0.266,0-0.53-0.112-0.716-0.33c-0.336-0.395-0.289-0.988,0.106-1.325
			c4.688-3.985,11.103-0.791,11.375-0.654c0.462,0.236,0.645,0.799,0.412,1.262c-0.235,0.462-0.799,0.649-1.262,0.413
			c-0.055-0.029-5.583-2.762-9.306,0.411C1850.341,947.648,1850.124,947.721,1849.909,947.721z"/>
	</g>
	<g id="_x31_">
		<path style="fill:#F99370;" d="M576.806,1772.815l-68.087-34.512c2.096-3.348,10.479-10.568,14.875-25.521
			c23.746-80.769,61.381-158.451,67.229-170.939l63.095,13.056l-99.235,164.51c-3.797,5.623-3.055,13.139,1.741,17.941
			c10.151,11.024,24.817,15.902,28.763,29.298C586,1771.359,581.07,1774.977,576.806,1772.815z"/>
		<path style="fill:#EB5648;" d="M509.979,1730.659c-0.894,2.456-1.394,5.028-1.261,7.645l69.13,35.041
			c3.361,1.704,7.471-0.37,7.963-4.105c1.13-8.739-2.532-24.11-33.552-41.927c0,0-12.476-2.27-28.664-14.529
			C523.595,1712.782,513.588,1720.695,509.979,1730.659z"/>
		<path style="fill:#E8C0A6;" d="M566.703,1756.486c0.55,0.269,1.231,0.2,1.721-0.227c5.7-4.963,11.238-4.559,11.471-4.54
			c2.012,0.206,2.312-2.97,0.287-3.126c-0.286-0.027-7.057-0.59-13.82,5.298C565.515,1754.596,565.711,1756.025,566.703,1756.486z"
			/>
		<path style="fill:#E8C0A6;" d="M556.485,1749.657c0.594,0.29,1.332,0.181,1.817-0.32c5.874-6.065,13.909-6.248,13.989-6.25
			c6.568-4.879-9.06-4.004-16.244,4.067C555.303,1747.894,555.54,1749.213,556.485,1749.657z"/>
		<path style="fill:#E8C0A6;" d="M544.872,1741.857c0.576,0.281,1.29,0.189,1.778-0.28c6.425-6.189,14.538-7.218,14.62-7.228
			c5.989-5.566-9.203-2.835-16.797,4.966C543.687,1740.042,543.908,1741.406,544.872,1741.857z"/>
		<path style="fill:#CE3932;" d="M585.828,1769.105l-75.85-38.447c-0.894,2.456-1.394,5.028-1.261,7.645l69.13,35.041
			C581.254,1775.077,585.425,1772.904,585.828,1769.105z"/>
		<path style="fill:#F99370;" d="M793.279,1771.223l-77.452-0.215c-1.304-4.08,3.047-22.722,1.821-29.489
			c-26.046-143.778-22.344-194.797-22.782-200.492l73.928-5.712l-20.399,198.145c-0.865,6.731,3.174,13.111,9.616,15.245
			c14.346,5.662,31.885,2.587,40.057,15.231C799.695,1767.322,797.037,1771.234,793.279,1771.223z"/>
		<path style="fill:#EB5648;" d="M713.517,1763.612c0.305,2.596,1.014,5.119,2.309,7.396l77.493,0.215
			c3.768,0.01,6.507-3.69,5.268-7.249c-2.917-8.315-13.094-20.399-48.808-22.367c0,0-12.164,3.583-32.132-0.089
			C717.647,1741.52,712.265,1753.088,713.517,1763.612z"/>
		<path style="fill:#E8C0A6;" d="M776.787,1760.802c2.598-6.32,8.431-10.155,8.644-9.817c1.889-0.723,0.731-3.689-1.15-2.923
			c-0.267,0.107-6.567,2.649-9.963,10.949C773.66,1760.479,775.621,1761.869,776.787,1760.802z"/>
		<path style="fill:#E8C0A6;" d="M764.591,1759.297c2.366-7.359,9.976-12.983,10.172-12.603c1.819-0.9,0.35-3.753-1.443-2.789
			c-0.336,0.175-8.317,4.382-11.242,13.725C761.567,1759.082,763.476,1760.318,764.591,1759.297z"/>
		<path style="fill:#E8C0A6;" d="M750.712,1757.551c3.601-10.417,12.183-13.349,10.724-15.883c-2.135-2.48-9.135,4.256-13.22,14.164
			C747.646,1757.293,749.577,1758.591,750.712,1757.551z"/>
		<path style="fill:#CE3932;" d="M798.542,1763.849l-85.025-0.236c0.305,2.596,1.014,5.119,2.309,7.396l77.493,0.215
			C797.14,1771.24,799.889,1767.423,798.542,1763.849z"/>
		<path style="fill:#F99370;" d="M736.983,1207.491c96.301-21.265,152.966-117.019,153.667-211.363
			c0.436-10.971-15.593-14.714-20.119-4.87c-35.568,79.312-60.641,131.125-148.322,158.924
			C684.769,1160.017,699.479,1216.986,736.983,1207.491z"/>
		<path style="fill:#F99370;" d="M674.197,1150.025c-111.009,4.09-226.725,119.145-78.514,180.219
			c15.086,5.675,21.154-12.076,9.012-20.459c-83.768-67.254,16.36-91.26,76.246-100.964
			C719.059,1203.326,712.488,1146.718,674.197,1150.025z"/>
		<path style="fill:#1D3F70;" d="M523.83,1241.362c0.826,3.685,2.148,5.607,2.148,5.607c-0.556-0.924,36.055-2.921,47.139,11.958
			c5.526-0.132,15.811-5.398,21.41-12.688c9.815-10.809,30.297-18.693,39.665-22.187l47.642-90.733
			C658.604,1124.358,516.002,1173.544,523.83,1241.362z"/>
		<path style="fill:#3A72AA;" d="M773.847,1535.312c-0.831,9.956-1.454,15.773-1.454,15.773c-97.624,35.588-191.7,0.479-191.7,0.479
			c0.112-4.059,0.032-8.214-0.192-12.465c-2.189-43.227-19.304-96.505-11.714-150.263c8.342-59.032,28.956-91.487,28.956-91.487
			l162.184,8.677C785.337,1364.194,777.555,1490.902,773.847,1535.312z"/>
		<path style="fill:#23659B;" d="M600.954,1545.778c0.038-0.392,3.781-39.996-2.699-111.646
			c-6.383-70.552,20.406-134.883,20.676-135.525l-5.946-2.515c-0.278,0.655-27.687,66.478-21.161,138.622
			c6.426,71.049,2.741,110.045,2.704,110.43L600.954,1545.778z"/>
		<path style="fill:#23659B;" d="M754.08,1549.225c15.382-113.585-9.917-244.853-10.175-246.165l-6.336,1.242
			c0.255,1.303,25.348,131.551,10.114,244.056L754.08,1549.225z"/>
		<path style="fill:#23659B;" d="M727.193,1555.103c5.391-85.838-6.411-247.341-6.531-248.962l-6.439,0.477
			c0.119,1.616,11.889,162.684,6.526,248.08L727.193,1555.103z"/>
		<path style="fill:#23659B;" d="M698.182,1554.909c0.003-0.64,0.13-64.629-4.724-119.659
			c-4.819-54.637-0.042-127.924,0.006-128.657l-6.444-0.428c-0.049,0.739-4.857,74.523,0.005,129.653
			c4.827,54.731,4.701,118.436,4.7,119.073L698.182,1554.909z"/>
		<path style="fill:#23659B;" d="M657.146,1555.009c0.021-0.605,2.029-61.3,0-119.588c-2.016-57.842,9.56-129.186,9.676-129.899
			l-6.372-1.047c-0.118,0.721-11.797,72.679-9.758,131.172c2.023,58.059,0.021,118.54,0,119.144L657.146,1555.009z"/>
		<path style="fill:#23659B;" d="M628.666,1549.189c2.475-26.453,1.82-53.026,0.914-89.805c-0.278-11.267-0.593-24.037-0.848-38.039
			c-1.066-58.479,14.886-117.682,15.047-118.273l-6.228-1.701c-0.164,0.6-16.359,60.663-15.275,120.092
			c0.257,14.023,0.571,26.804,0.849,38.081c0.934,37.919,1.552,62.97-0.888,89.043L628.666,1549.189z"/>
		
			<rect x="679.236" y="1105.102" transform="matrix(0.0922 -0.9957 0.9957 0.0922 -481.399 1709.9474)" style="fill:#F99370;" width="35.765" height="27.788"/>
		<path style="fill:#F99370;" d="M661.698,1073.724c-2.769,54.531,85.113,54.635,81.562-0.718
			c-0.191-10.921-3.396-18.476-3.617-35.885c-0.508-40.303-57.05-47.683-66.017-6.415
			C670.098,1046.986,662.973,1058.569,661.698,1073.724z"/>
		<path style="fill:#103663;" d="M568.212,1253.721c1.654,1.224,3.465,3.627,4.904,5.206c0,0,11.03-0.649,21.411-12.687
			c8.399-9.727,29.177-18.244,36.793-21.136l-8.096-25.465c0,0-21.214,19.238-32.136,38.166
			C580.432,1256.274,568.816,1253.798,568.212,1253.721z"/>
		<path style="fill:#1D3F70;" d="M597.741,1297.349c0,0,66.524,24.577,162.187,8.678c2.188-23.073,2.204-67.323-3.784-96.176
			c-12.687-94.971-122.743-124.329-141.349,28.872C610.496,1264.424,607.897,1276.177,597.741,1297.349z"/>
		<path style="fill:#1D3F70;" d="M709.452,1136.52l46.704,73.332c59.843-17.516,130.915-71.612,123.57-118.514l-0.01-0.001
			c-1.624-6.286-4.512-9.692-4.512-9.692c-26.035,0.169-40.126-19.672-40.126-19.672
			C794.104,1071.274,798.531,1130.614,709.452,1136.52z"/>
		<path style="fill:#662948;" d="M735.559,1016.163c0,0,20.934,6.94-1.325,40.44c-13.762,20.711,21.336,52.058-6.811,80.167
			c-65.321,85.898-251.892,42.26-150.186-50.036c30.495-16.4,29.173-33.173,39.408-54.255
			C630.277,1004.399,692.105,951.607,735.559,1016.163z"/>
		<path style="fill:#103663;" d="M523.83,1241.362c0.826,3.685,2.148,5.607,2.148,5.607c-0.556-0.924,36.055-2.921,47.139,11.958
			c0,0,2.419-0.204,7.584-2.424C580.7,1256.503,558.854,1227.301,523.83,1241.362z"/>
		<path style="fill:#103663;" d="M822.253,1067.183c30.711,34.231,57.463,24.154,57.463,24.154
			c-1.624-6.286-4.512-9.692-4.512-9.692c-26.035,0.169-40.126-19.672-40.126-19.672
			C830.462,1062.306,825.87,1065.023,822.253,1067.183z"/>
		<path style="fill:#103663;" d="M740.736,1197.19c0.6,1.619,19.954,53.688,20.092,88.515c0.665-20.781-0.204-52.484-4.682-75.854
			C755.734,1209.78,750.443,1207.577,740.736,1197.19z"/>
		<path style="fill:#23659B;" d="M773.847,1535.312c-0.831,9.956-1.454,15.773-1.454,15.773c-97.624,35.588-191.7,0.479-191.7,0.479
			c0.112-4.059,0.032-8.214-0.192-12.465l0.016-0.016C580.517,1539.083,684.438,1569.59,773.847,1535.312z"/>
		<path style="fill:#F99370;" d="M873.983,976.806c2.134-11.46,7.044-22.36,14.481-31.325c3.25-2.808,7.979-11.307,12.66-7.494
			c0.996,1.219,0.93,2.957-0.084,4.095c-9.02,9.559-13.741,22.784-14.256,35.79C887.017,987.159,872.226,985.943,873.983,976.806z"
			/>
		<path style="fill:#F99370;" d="M890.186,1001.063c0,0,13.768-10.748,14.033-24.442c0.265-13.693-12.653-19.79-12.653-19.79
			S872.406,985.209,890.186,1001.063z"/>
		<path style="fill:#F99370;" d="M870.797,987.76c0,0,8.478-20.06,23.14-29.188l-10.12,32.255L870.797,987.76z"/>
		<path style="fill:#F99370;" d="M875.014,955.706c1.293,1.164,2.041,2.822,2.249,4.549c0.995,8.251,1.41,17.204,5.424,24.429
			c4.996,9.948-10.526,17.401-12.157,6.574C868.679,987.068,867.162,948.637,875.014,955.706z"/>
		<path style="fill:#E57D61;" d="M891.701,969.614c-0.108,0.003-0.218-0.019-0.321-0.072c-0.328-0.165-0.46-0.566-0.294-0.893
			c3.354-6.639,7.096-6.825,7.199-6.803c0.368-0.009,0.673,0.281,0.682,0.649c0.008,0.365-0.277,0.668-0.641,0.681
			c-0.066,0.005-3.118,0.266-6.051,6.072C892.161,969.474,891.937,969.606,891.701,969.614z"/>
		<path style="fill:#E57D61;" d="M896.979,975.107c-0.117,0.004-0.238-0.024-0.348-0.087c-0.32-0.18-0.433-0.586-0.252-0.906
			c2.634-4.661,5.468-5.428,5.587-5.457c0.354-0.093,0.718,0.124,0.809,0.482c0.09,0.355-0.123,0.714-0.476,0.807
			c-0.057,0.016-2.453,0.739-4.761,4.824C897.419,974.979,897.204,975.1,896.979,975.107z"/>
	</g>
</g>
</svg>
