<?xml version="1.0" encoding="utf-8"?>
<!-- Generator: Adobe Illustrator 27.5.0, SVG Export Plug-In . SVG Version: 6.00 Build 0)  -->
<svg version="1.1" xmlns="http://www.w3.org/2000/svg" xmlns:xlink="http://www.w3.org/1999/xlink" x="0px" y="0px"
	 viewBox="0 0 3710 3710" style="enable-background:new 0 0 3710 3710;" xml:space="preserve">
<g id="Background">
	<g>
		<g>
			<rect style="fill:#FFFFFF;" width="3710" height="3710"/>
		</g>
	</g>
</g>
<g id="Illustration">
	<g>
		<path style="fill:#F4F7FA;" d="M3199.021,1638.869c-75.066-491.344-382.838-1094.996-990.875-1158.169
			c0,0-461.65-56.153-916.736,28.952c-270.094,50.51-506.926,200.866-656.784,416.967
			c-149.859,216.1-199.917,479.605-139.166,730.824c39.457,163.169,66.121,332.043,58.803,499.709
			c-12.735,291.807-5.408,564.187,277.784,738.212c252.857,155.385,571.083,292.43,874.674,316.433
			c206.318,16.313,437.692-10.085,636.544-63.8C3356.66,2874.249,3274.087,2130.213,3199.021,1638.869z"/>
		<g>
			<g>
				<g>
					<defs>
						<path id="SVGID_1_" d="M1572.647,3010.29c53.673-84.846,122.611-223.649,102.254-382.475
							c-35.515-277.083-302.833-303.236-428.109-636.99c-101.041-269.186,19.557-394.167-128.438-607.263
							c-24.772-35.669-153.681-228.82-316.49-214.199c-91.745,8.237-153.525,78.688-165.123,91.914
							c-175.286,199.889-92.473,663.967,145.711,960.959c136.847,170.633,207.271,163.578,472.098,407.099
							C1410.166,2772.429,1512.122,2915.052,1572.647,3010.29z"/>
					</defs>
					
						<linearGradient id="SVGID_00000103963695687688126220000002711367871069096083_" gradientUnits="userSpaceOnUse" x1="6079.6099" y1="12969.8047" x2="7479.7627" y2="16010.5439">
						<stop  offset="0.0036" style="stop-color:#E38DDD"/>
						<stop  offset="1" style="stop-color:#9571F6"/>
					</linearGradient>
					
						<use xlink:href="#SVGID_1_"  style="overflow:visible;fill:url(#SVGID_00000103963695687688126220000002711367871069096083_);"/>
					<clipPath id="SVGID_00000125588836742488367780000002921080356002500233_">
						<use xlink:href="#SVGID_1_"  style="overflow:visible;"/>
					</clipPath>
					<g style="clip-path:url(#SVGID_00000125588836742488367780000002921080356002500233_);">
						<g>
							<path style="fill:#FFFFFF;" d="M1556.753,3132.054l-4.174-0.827c46.616-236.097,22.734-417.957-70.986-540.53
								c-45.735-59.819-91.566-85.627-140.087-112.952c-52.939-29.813-107.683-60.642-164.271-138.793
								c-55.063-76.042-63.344-130.212-73.829-198.795c-9.327-60.993-20.932-136.903-70.209-252.283
								c-43.194-101.147-82.408-156.541-117.006-205.415c-37.834-53.447-67.717-95.661-88.665-177.14
								c-34.135-132.768-19.762-278.31,42.727-432.582l3.943,1.599c-62.134,153.411-76.449,298.056-42.545,429.921
								c20.754,80.72,50.438,122.653,88.016,175.743c34.722,49.046,74.073,104.637,117.449,206.2
								c49.488,115.878,61.138,192.083,70.498,253.314c10.398,68.012,18.613,121.734,73.069,196.941
								c56.046,77.395,110.374,107.991,162.915,137.581c48.909,27.544,95.108,53.563,141.376,114.074
								C1579.465,2711.697,1603.616,2894.705,1556.753,3132.054z"/>
						</g>
						<g>
							<path style="fill:#FFFFFF;" d="M934.887,1705.652l-2.657-1.029c-170.197-65.958-268.206-182.275-320.454-268.237
								c-56.617-93.145-73.217-171.798-73.378-172.584l4.174-0.857c0.157,0.779,16.65,78.838,72.932,171.377
								c51.637,84.904,148.245,199.634,315.636,265.307c3.273-33.472,38.404-350.775,196.828-425.877l1.827,3.847
								c-164.25,77.862-194.389,421.749-194.674,425.214L934.887,1705.652z"/>
						</g>
						<g>
							<path style="fill:#FFFFFF;" d="M1077.59,2012.706c-13.08,0-101.484-1.386-213.399-36.522
								c-111.452-34.989-269.756-111.56-390.985-277.643l3.438-2.509c120.507,165.089,277.872,241.234,388.667,276.041
								c110.861,34.828,198.46,36.359,212.036,36.375c23.969-176.724,156.964-384.309,158.307-386.392l3.579,2.31
								c-1.347,2.083-134.752,210.314-157.911,386.477l-0.24,1.816l-1.831,0.035
								C1079.185,2012.698,1078.619,2012.706,1077.59,2012.706z"/>
						</g>
						<g>
							<path style="fill:#FFFFFF;" d="M1173.288,2461.003c-98.633,0-249.026-17.165-423.042-95.244l1.744-3.885
								c291.807,130.933,516.612,89.938,541.04,84.877c-56.736-198.177,92.124-420,93.641-422.226l3.521,2.397
								c-1.513,2.217-150.332,224.049-92.438,420.825l0.632,2.153l-2.182,0.519
								C1295.188,2450.663,1249.812,2461.003,1173.288,2461.003z"/>
						</g>
					</g>
				</g>
			</g>
			<g>
				<g>
					<defs>
						<path id="SVGID_00000051377241305930990170000011818110700928541087_" d="M2127.85,2871.175
							c-52.779-72.612-120.572-191.405-100.584-327.345c34.871-237.16,297.664-259.581,420.769-545.257
							c99.29-230.41-19.288-337.364,126.17-519.773c24.347-30.532,151.046-195.867,311.104-183.376
							c90.194,7.037,150.941,67.328,162.344,78.647c172.353,171.061,91.012,568.276-143.097,822.503
							c-134.506,146.063-203.739,140.035-464.049,348.499C2287.546,2667.568,2187.336,2789.653,2127.85,2871.175z"/>
					</defs>
					
						<linearGradient id="SVGID_00000062904978954324308830000008378670594061214352_" gradientUnits="userSpaceOnUse" x1="5401.749" y1="8228.9219" x2="6200.4663" y2="9963.5127">
						<stop  offset="0" style="stop-color:#FF9085"/>
						<stop  offset="1" style="stop-color:#FB6FBB"/>
					</linearGradient>
					
						<use xlink:href="#SVGID_00000051377241305930990170000011818110700928541087_"  style="overflow:visible;fill:url(#SVGID_00000062904978954324308830000008378670594061214352_);"/>
					<clipPath id="SVGID_00000167366352170546887320000000757471610322451087_">
						<use xlink:href="#SVGID_00000051377241305930990170000011818110700928541087_"  style="overflow:visible;"/>
					</clipPath>
					<g style="clip-path:url(#SVGID_00000167366352170546887320000000757471610322451087_);">
						<g>
							<path style="fill:#FFFFFF;" d="M2143.494,2975.391l4.103-0.708c-45.864-202.069-22.414-357.726,69.701-462.648
								c44.953-51.206,90.004-73.301,137.7-96.695c52.039-25.524,105.853-51.918,161.471-118.815
								c54.12-65.092,62.253-111.457,72.549-170.158c9.16-52.205,20.556-117.178,68.982-215.938
								c42.448-86.578,80.99-133.994,114.995-175.83c37.186-45.75,66.557-81.886,87.138-151.626
								c33.537-113.641,19.385-238.208-42.072-370.241l-3.875,1.369c61.106,131.295,75.202,255.095,41.892,367.963
								c-20.39,69.091-49.566,104.986-86.5,150.43c-34.127,41.983-72.804,89.569-115.43,176.502
								c-48.633,99.187-60.074,164.412-69.266,216.821c-10.211,58.213-18.28,104.195-71.802,168.572
								c-55.086,66.25-108.49,92.444-160.138,117.777c-48.078,23.581-93.491,45.857-138.967,97.655
								C2121.1,2615.61,2097.386,2772.25,2143.494,2975.391z"/>
						</g>
						<g>
							<path style="fill:#FFFFFF;" d="M2754.62,1754.451l2.612-0.881c167.308-56.477,263.641-156.045,314.992-229.627
								c55.645-79.73,71.952-147.052,72.111-147.724l-4.104-0.733c-0.154,0.667-16.356,67.479-71.672,146.691
								c-50.75,72.677-145.706,170.886-310.256,227.118c-3.223-28.648-37.809-300.223-193.565-364.481l-1.795,3.293
								c161.484,66.62,191.167,360.948,191.448,363.913L2754.62,1754.451z"/>
						</g>
						<g>
							<path style="fill:#FFFFFF;" d="M2614.378,2017.278c12.858-0.002,99.767-1.2,209.784-31.288
								c109.562-29.962,265.176-95.52,384.329-237.687l-3.381-2.147c-118.443,141.316-273.135,206.51-382.05,236.316
								c-108.981,29.824-195.097,31.146-208.444,31.162c-23.591-151.255-154.369-328.908-155.69-330.691l-3.518,1.978
								c1.325,1.783,132.505,179.99,155.3,330.764l0.236,1.555l1.8,0.03C2612.81,2017.271,2613.367,2017.278,2614.378,2017.278z"/>
						</g>
						<g>
							<path style="fill:#FFFFFF;" d="M2520.368,2400.987c96.965-0.013,244.812-14.725,415.872-81.577l-1.715-3.324
								c-286.851,112.105-507.86,77.048-531.876,72.72c55.746-169.627-90.631-359.465-92.122-361.37l-3.461,2.052
								c1.487,1.897,147.824,191.743,90.94,360.171l-0.621,1.843l2.145,0.444
								C2400.529,2392.154,2445.139,2400.997,2520.368,2400.987z"/>
						</g>
					</g>
				</g>
			</g>
			<g>
				
					<linearGradient id="SVGID_00000112630106914465185000000011316023840931562421_" gradientUnits="userSpaceOnUse" x1="2455.8931" y1="1333.6753" x2="1144.4305" y2="2410.9495" gradientTransform="matrix(-0.9999 0.0021 0.0021 0.9999 3076.7134 949.9698)">
					<stop  offset="0" style="stop-color:#FFC444"/>
					<stop  offset="0.9964" style="stop-color:#F36F56"/>
				</linearGradient>
				<path style="fill:url(#SVGID_00000112630106914465185000000011316023840931562421_);" d="M1563.678,2968.173
					c-35.601-50.02-96.065-125.469-187.36-197.762c-162.384-128.588-260.246-118.861-311.785-223.676
					c-53.349-108.496,26.283-170.22-39.812-293.605c-5.558-10.374-77.382-140.35-183.543-137.338
					c-74.267,2.108-125.464,68.17-149.486,99.166c-93.231,120.3-136.972,337.179-26.586,489.219
					c104.655,144.147,294.932,157.46,355.477,161.294c106.217,6.726,142.183-23.287,249.158-13.501
					C1399.833,2863.87,1500.452,2922.326,1563.678,2968.173z"/>
			</g>
		</g>
		<g>
			<defs>
				
					<ellipse id="SVGID_00000098922596676317490720000009557643643372756373_" transform="matrix(0.7071 -0.7071 0.7071 0.7071 -924.332 1843.6471)" cx="1763.313" cy="2037.591" rx="979.877" ry="979.877"/>
			</defs>
			<clipPath id="SVGID_00000095297358355522672770000002569989837076238992_">
				<use xlink:href="#SVGID_00000098922596676317490720000009557643643372756373_"  style="overflow:visible;"/>
			</clipPath>
			<g style="clip-path:url(#SVGID_00000095297358355522672770000002569989837076238992_);">
				<path style="fill:#D8DEE8;" d="M2755.188,2038.425c0,209.977-65.946,404.761-177.76,565.094
					c-0.44,0.659-2.016,1.291-2.016,1.951v0.027c-175.445,257.065-476.072,423.614-813.304,423.614
					c-27.582,0-54.001-1.289-81.008-5.021c-0.027,0-0.027,0-0.027,0c-0.11,0-0.166,1.642-0.276,1.642
					c-13.296-1.099-26.484-1.61-39.616-3.231c-4.67-0.549-9.34-0.736-13.983-1.396c-4.121-0.55-8.216-0.918-12.308-1.55
					c-3.572-0.521-7.116-0.967-10.632-1.544c-0.797-0.137-1.594-0.222-2.391-0.333c-8.654-1.428-17.28-2.913-25.879-4.562
					c-0.055,0-0.082-0.015-0.137-0.015c-458.498-87.584-804.934-490.663-804.934-974.683c0-102.338,14.867-201.072,43.659-293.959
					c4.506-14.56,10.118-28.953,13.851-43.212v-0.027c11.199-23.764,18.705-47.089,29.007-69.974
					c4.148-9.148,8.735-18.242,13.103-27.253c24.148-49.507,52.445-96.705,84.176-141.184c2.885-4.039,5.879-8.05,8.819-12.061
					c11.758-15.989,24.025-31.594,36.745-46.842c19.039-22.858,39.087-44.864,60.077-65.908
					c54.644-54.837,115.672-103.327,181.854-144.234c20.467-12.665,41.463-24.616,62.891-35.77
					c51.897-27.088,106.461-49.699,163.248-67.336c93.188-28.984,192.257-44.589,294.979-44.589
					c236.242,0,453.197,82.529,623.585,220.334c125.333,101.376,227.264,232.615,291.387,382.92
					c14.342,33.572,24.032,68.078,38.964,103.409v0.027c0,0.165-1.709,0.275-1.655,0.44
					C2742.694,1843.532,2755.188,1939.275,2755.188,2038.425z"/>
				<g>
					<path style="fill:#FFFFFF;" d="M1681.073,3027.429v-0.027h0.082l-0.055,0.027
						C1681.073,3027.429,1681.073,3027.429,1681.073,3027.429z"/>
					<path style="fill:#FFFFFF;" d="M1979.512,2372.993c-21.292,30.001-87.172,68.518-42.473,144.179
						c44.315,75.469-3.076,89.617-33.572,82.556c-30.632-6.978-125.854-10.879-109.975,32.391
						c15.825,43.325,43.105,59.561,8.215,76.292c-34.863,16.649-49.617,60.139-85.304,120.003
						c-35.441,59.974-119.673,8.105-94.728,68.216c24.891,60.138,44.315,54.314,41.98,96.21
						c-0.55,11.511,7.088,23.325,17.418,34.562c-13.297-1.099-26.649-2.445-39.891-4.066c-4.67-0.55-9.34-1.154-13.983-1.813
						c-4.121-0.549-8.216-1.126-12.308-1.758c-3.572-0.522-7.116-1.072-10.632-1.648c-0.797-0.137-0.592-0.275-1.388-0.384
						c-8.517-1.429-12.937-2.967-24.135-4.588v-0.028c-7.466-7.088-2.788-14.78-1.662-23.077
						c11.127-77.364-95.613-130.524-113.498-184.729c-17.583-54.067-0.223-86.321-4.289-131.129
						c-4.175-44.727,10.452-104.041-15.29-141.734c-25.742-37.556-129.516-50.138-149.269-125.936
						c-19.891-75.634,26.37-188.906,44.337-208.191c17.747-19.287-85.924-107.035-135.266-109.837
						c-49.561-3.022-29.734-102.804-113.527-87.611c-83.957,14.725-234.788-32.116-203.634-82.502
						c25.714-41.512,68.877-133.079-72.032-173.905c4.505-14.561,10.088-28.957,13.82-43.215v-0.027
						c11.199-23.764,18.705-47.089,29.007-69.974c4.148-9.148,8.735-18.242,13.103-27.253
						c24.176-49.507,52.471-96.705,84.176-141.184c2.885-4.039,5.879-8.05,8.819-12.061c11.786-15.989,24.053-31.622,36.745-46.842
						c19.039-22.858,39.087-44.864,60.077-65.908c54.644-54.837,115.672-103.327,181.854-144.234
						c27.913,19.561,59.786,31.622,87.315,16.759c67.501-37.776,22.998-43.573-4.641-44.973c-7.198-0.357-14.175-3.214-19.78-7.555
						c51.897-27.088,106.459-49.699,163.246-67.336c-4.204,38.105-55.991,99.315-17.885,91.842
						c44.341-8.434,62.447-128.244,95.003-88.436c33.023,39.973-36.127,92.365,28.819,62.007
						c65.029-30.056,73.71-97.145,146.184-64.507c72.832,33.05,66.184,72.172,86.513,68.298
						c20.248-3.819,85.744,40.193,46.127,76.403c-39.974,36.319-76.622-9.945-136.542-23.902
						c-59.946-13.791-58.491,35.248-86.073,46.457c-28.05,10.824-163.355-54.562-196.57,4.533
						c-33.572,58.628-47.858,99.535,1.978,98.024c49.781-1.401,52.996-14.286,49.094,22.528
						c-3.984,36.842,5.083,64.425,50.193,29.781c44.974-34.589,34.892-68.326,70.057-51.842
						c35.193,16.538,39.341,1.566,76.76-25.605c37.391-27.171,86.595-30,99.481,30.962c12.911,60.99-9.149,74.672-74.92,77.749
						c-65.798,3.187-73.243-17.556-94.205,37.445c-20.853,55.028-107.888,125.69-184.29,154.811
						c-76.266,29.176-106.156,72.281-104.398,130.442c1.813,58.27-26.869,119.728-46.017,71.705
						c-19.231-48.16-73.134-129.261-128.135-75.056c-55.111,54.314-151.02,150.332-45.029,167.887
						c105.771,17.885,50.578-81.21,104.041-61.402c53.38,19.946-33.82,63.628,1.868,79.397
						c35.742,15.907,50.715,8.462,50.441,57.172c-0.276,48.683,11.841,95.964,55.221,75.304
						c43.352-20.578,98.936-93.455,161.657-36.998c62.803,56.594,58.457,26.667,91.397,10.184
						c32.913-16.456,53.875,32.885,67.364,55.358c13.489,22.446,66.402-0.467,109.289,66.403
						c42.857,66.869,59.671,78.793,108.545,54.726c48.902-24.039,68.793-6.182,81.539,27.583
						c12.693,33.764,42.803,0.769,57.31,45.385C2007.59,2349.888,2000.667,2342.965,1979.512,2372.993z"/>
					<g>
						<path style="fill:#FFFFFF;" d="M2146.879,1562.84c-34.644-74.342,137.007-65.991,167.338-60.276
							c30.522,5.083,102.117-50.88,111.211-76.898c9.341-26.209,24.671-13.764,78.986-14.505
							c54.287-0.577,6.318-12.858-53.436-32.556c-59.644-19.643-8.654-21.621-63.626-65.028
							c-23.654-19.011-16.209-35.166-0.44-47.172c125.333,101.376,225.471,232.615,289.595,382.92
							c-1.814-0.549-3.516-0.852-5.11-0.879c-38.024-0.22-46.402-84.287-65.99-100.661c-19.314-16.346,0.549,46.182,5.275,71.869
							c4.753,25.715-10.413,4.094-29.369,27.693c-19.039,23.627-53.409,24.067-56.513-11.374
							c-3.159-35.358-28.076-70.084-78.655-86.238c-50.578-16.154-94.342-2.885-135.442,12.967
							C2269.821,1578.279,2181.769,1636.605,2146.879,1562.84z"/>
						<path style="fill:#FFFFFF;" d="M2577.821,2605.47c3.434-25.523,9.039-51.897-1.622-61.54
							c-25.906-24.039-31.566-89.534-22.582-122.722c8.955-33.27,78.765-31.374,31.4-86.622
							c-47.5-55.414-90.303-121.184-70.358-158.794c19.946-37.556,13.901-40.303-23.489-40.083
							c-37.448,0.22-53.848,1.868-91.128-31.429c-37.309-33.737-88.629,79.617-229.043-11.291
							c-140.388-91.815-60.441-246.571-7.83-246.955c52.94-0.879,114.783-27.611,71.403-92.172
							c-43.244-64.809,24.341-73.958,57.363-59.232c33.078,14.561,91.732-24.561,151.514-42.199
							c59.919-17.555,57.281,80.057,90.551,99.59c33.463,19.561,96.156,4.039,128.739-27.226
							c23.271-22.308,28.353,3.709,51.349,28.407c27.088,90.331,41.621,186.075,41.621,285.225
							C2755.709,2249.254,2689.966,2444.752,2577.821,2605.47z"/>
						<path style="fill:#FFFFFF;" d="M2326.676,1439.102c0.035-0.06,43.78-19.809,27.925-51.629
							c-15.712-31.825-40.634-129.364-58.842-98.628c-18.323,30.875,8.689,90.825,2.791,116.692
							C2292.597,1431.484,2292.439,1445.063,2326.676,1439.102z"/>
						<path style="fill:#FFFFFF;" d="M2282.994,1409.327c-0.619-10.254,5.839-51.897-26.93-50.592
							c0.062-0.066-47.399,19.739-19.634,53.384C2264.32,1445.663,2283.704,1419.554,2282.994,1409.327z"/>
					</g>
				</g>
			</g>
			<path style="opacity:0.3;clip-path:url(#SVGID_00000095297358355522672770000002569989837076238992_);fill:#97A6B7;" d="
				M2752.551,2036.689c0,209.977-64.627,404.761-176.442,565.094c-0.44,0.659-0.698,1.291-0.698,1.951v0.028
				c-179.178,257.065-477.391,422.829-814.622,422.829c-27.582,0-55.32-2.101-82.325-5.833c-0.028,0-0.028,0-0.028,0
				c-0.11,0-0.165,2.454-0.275,2.454c-13.296-1.099-26.483-1.232-39.616-2.853c-4.671-0.549-9.34-0.533-13.984-1.193
				c-4.121-0.549-8.215-0.816-12.307-1.448c-3.572-0.522-7.117-0.903-10.633-1.479c-0.797-0.138-1.594-0.205-2.39-0.314
				c-8.654-1.429-17.28-2.904-25.879-4.553c-0.055,0-0.082-0.01-0.137-0.01c-423.992-80.99-752.13-432.019-799.138-867.109
				c99.426,285.198,345.282,499.484,647.541,559.21h0.11c7.418,3.733,14.863,2.979,22.335,4.216
				c0.687,0.083,1.402,0.323,2.089,0.433c3.022,0.494,6.098,0.999,9.176,1.438c3.516,0.55,7.06,0.995,10.633,1.462
				c4.011,0.576,8.021,0.923,12.061,1.39c11.346,1.401,22.719,3.985,34.203,4.92c0.11,0,0.165,1.073,0.247,1.073c0,0,0,0,0.028,0
				c23.324,0,46.568,1.874,70.387,1.874c145.607,0,282.835-37.017,402.892-100.891c120.057-63.875,222.944-155.97,299.868-266.961
				c0-0.577,0.934-1.349,1.29-1.926c96.569-138.437,153.081-306.766,153.081-488.088c0-85.606-12.568-168.355-35.975-246.351
				c-0.028-0.137-0.343-0.303-0.343-0.441v-0.028c-7.466-30.495-19.493-60.303-31.856-89.287
				c-55.386-129.81-141.631-243.137-249.875-330.666c-79.234-64.095-170.104-114.316-268.979-147.036
				c200.278,18.434,383.336,96.43,531.279,216.076c125.332,101.376,226.718,232.615,290.841,382.92
				c14.34,33.572,23.486,68.078,38.418,103.409v0.027c0,0.164-1.162,0.275-1.108,0.44
				C2739.509,1841.795,2752.551,1937.539,2752.551,2036.689z"/>
		</g>
		<g>
			<g>
				
					<linearGradient id="SVGID_00000083050621704126405990000011901285671936688047_" gradientUnits="userSpaceOnUse" x1="-1379.2157" y1="447.1098" x2="-553.1917" y2="1008.1822" gradientTransform="matrix(-1 0 0 1 210.7145 0)">
					<stop  offset="0" style="stop-color:#311944"/>
					<stop  offset="1" style="stop-color:#6B3976"/>
				</linearGradient>
				<path style="fill:url(#SVGID_00000083050621704126405990000011901285671936688047_);" d="M1544.548,745.554
					c15.539-10.075,1.38-39.382,0.544-102.335c-1.026-77.144,19.464-91.519,3.007-121.786
					c-20.123-37.009-70.778-52.324-104.339-53.047c-7.402-0.158-9.132-4.201-71.143,11.859
					c-111.721,28.934-139.689-2.083-189.719,28.899c-48.336,29.935-27.17,62.719-74.109,97.823
					c-76.084,56.905-156.091-4.616-210.467,42.983c-51.434,45.022-52.618,159.729,1.482,222.327
					c61.329,70.964,171.916,49.643,246.039,35.572c15.595-2.959,94.365-19.502,176.379-80.035
					c45.37-33.49,76.523-69.252,96.342-95.601c4.651-5.235,11.91-11.578,21.491-12.598c11.503-1.228,20.744,5.808,25.197,8.892
					C1488.635,744.701,1529.283,755.45,1544.548,745.554z"/>
				
					<linearGradient id="SVGID_00000088847249514806601710000017233729778052683966_" gradientUnits="userSpaceOnUse" x1="1476.1868" y1="895.3385" x2="1858.8718" y2="895.3385">
					<stop  offset="0" style="stop-color:#FFC444"/>
					<stop  offset="0.9964" style="stop-color:#F36F56"/>
				</linearGradient>
				<path style="fill:url(#SVGID_00000088847249514806601710000017233729778052683966_);" d="M1482.11,703.275
					c19.98-18.202,91.281,16.881,138.534,63.444c55.514,54.704,51.246,99.058,99.693,167.018
					c24.083,33.786,65.374,79.269,138.535,119.111c-5.18,12.946-10.358,25.897-15.536,38.842
					c-35.374,2.127-104.82,0.876-169.609-41.428c-45.006-29.389-68.163-68.329-112.64-145.01
					C1516.45,828.293,1457.135,726.031,1482.11,703.275z"/>
				
					<linearGradient id="SVGID_00000085221969269408592460000009979959187536782509_" gradientUnits="userSpaceOnUse" x1="-1494.8969" y1="811.9388" x2="-1373.5027" y2="811.9388" gradientTransform="matrix(-0.831 -0.5562 -0.5562 0.831 1146.7618 279.3084)">
					<stop  offset="0" style="stop-color:#311944"/>
					<stop  offset="1" style="stop-color:#6B3976"/>
				</linearGradient>
				<path style="fill:url(#SVGID_00000085221969269408592460000009979959187536782509_);" d="M1918.489,1772.78l-22.719-48.272
					c-3.228-6.858-8.26-12.708-14.559-16.924l-11.25-7.529c0,0-26.892-0.714-31.078,16.19c-0.9,21.465,40.815,69.429,67.197,88.475
					c4.38,3.161,10.625,7.375,14.42,5.206C1926.926,1806.254,1922.417,1786.509,1918.489,1772.78z"/>
				<path style="fill:#FFFFFF;" d="M1875.793,1673.809c-3.578,20.704,0.948,31.499,5.827,37.546
					c3.434,4.256,31.296,50.197,19.853,57.616c-5.165,3.348-40.563-40.609-43.996-47.344c-3.109-6.099-5.131-4.66-5.312-21.277
					c-0.118-10.941-2.343-19.747-4.093-25.255C1857.314,1674.665,1866.553,1674.238,1875.793,1673.809z"/>
				
					<linearGradient id="SVGID_00000002343563862912761540000018315057954398037404_" gradientUnits="userSpaceOnUse" x1="-1726.8199" y1="1539.5189" x2="-1658.7856" y2="1539.5189" gradientTransform="matrix(-1 0 0 1 210.7145 0)">
					<stop  offset="0" style="stop-color:#311944"/>
					<stop  offset="1" style="stop-color:#6B3976"/>
				</linearGradient>
				<path style="fill:url(#SVGID_00000002343563862912761540000018315057954398037404_);" d="M1916.03,1509.718
					c0,0,25.147,30.006,21.055,62.901c-4.092,32.893-48.132-15.198-54.271-31.451c-6.141-16.252-13.313-39.408-13.313-39.408
					S1900.383,1482.547,1916.03,1509.718z"/>
				<path style="fill:#FFFFFF;" d="M1906.437,1462.77c0,0-6.821,34.957,6.19,53.407c6.481,9.189,15.222,16.984,12.651,24.464
					c-1.722,5.013-8.263,8.615-13.804,8.045c-10.608-1.089-16.488-17.352-20.635-28.822c-6.126-16.942-9.541-53.195-9.541-53.195
					L1906.437,1462.77z"/>
				
					<linearGradient id="SVGID_00000116197729010953366020000002469512460710486158_" gradientUnits="userSpaceOnUse" x1="-1629.3633" y1="1164.8314" x2="-1546.502" y2="1643.8743" gradientTransform="matrix(-1 0 0 1 210.7145 0)">
					<stop  offset="0" style="stop-color:#AB316D"/>
					<stop  offset="1" style="stop-color:#792D3D"/>
				</linearGradient>
				<path style="fill:url(#SVGID_00000116197729010953366020000002469512460710486158_);" d="M1886.394,1492.238
					c7.734-2.815,15.468-5.634,23.201-8.451c12.065-27.556,26.789-72.818,21.871-127.832
					c-12.648-141.478-143.5-216.449-158.037-224.474c-35.651,17.888-71.763,43.123-73.071,74.934
					c-1.641,39.935,52.761,61.044,103.9,119.438C1834.957,1360.903,1867.757,1413.131,1886.394,1492.238z"/>
				
					<linearGradient id="SVGID_00000089547138536420725540000005358259769526622086_" gradientUnits="userSpaceOnUse" x1="-1512.3438" y1="1732.5667" x2="-1394.5248" y2="1359.6892" gradientTransform="matrix(-1 0 0 1 210.7145 0)">
					<stop  offset="0" style="stop-color:#AB316D"/>
					<stop  offset="1" style="stop-color:#792D3D"/>
				</linearGradient>
				<path style="fill:url(#SVGID_00000089547138536420725540000005358259769526622086_);" d="M1878.058,1689.991
					c25.552-99.817,19.024-181.27,11.653-228.193c-11.142-70.921-33.802-215.183-130.119-268.977
					c-21.032-11.747-51.101-22.266-87.747-54.925c-30.604-27.273-50.055-55.956-61.791-76.164
					c-128.812-37.787-247.623-22.474-300.051,46.61c-6.057,7.983-21.224,25.297-24.158,50.828
					c-6.621,57.604,49.98,126.955,113.493,141.437c80.719,18.406,127.547-64.476,199.062-36.899
					c20.004,7.713,36.965,26.828,70.886,65.059c43.152,48.633,67.409,93.51,76.587,111.466
					c27.326,53.472,48.049,92.945,51.072,144.101c0.703,11.917,1.123,35.994,15.083,61.961
					c10.715,19.934,25.239,33.224,36.044,41.435C1858.068,1688.483,1868.063,1689.239,1878.058,1689.991z"/>
				
					<linearGradient id="SVGID_00000160905798410703785830000000512548872281596849_" gradientUnits="userSpaceOnUse" x1="-1512.3336" y1="1732.5718" x2="-1394.5144" y2="1359.6936" gradientTransform="matrix(-1 0 0 1 210.7145 0)">
					<stop  offset="0" style="stop-color:#AB316D"/>
					<stop  offset="1" style="stop-color:#792D3D"/>
				</linearGradient>
				<path style="opacity:0.3;fill:url(#SVGID_00000160905798410703785830000000512548872281596849_);" d="M1285.846,1159.17
					c2.934-25.531,18.1-42.845,24.158-50.828c52.427-69.083,171.238-84.397,300.051-46.61c11.737,20.208,31.188,48.891,61.79,76.164
					c36.647,32.66,66.716,43.178,87.748,54.925c58.814,32.848,90.137,99.423,108.172,162.441
					c-26.757-41.488-49.662-52.517-67.387-52.714c-25.371-0.281-36.708,21.411-67.001,18.449
					c-32.38-3.164-39.784-29.937-66.031-33.014c-7.856-0.92-17.522,0.292-29.133,6.472c-15.493-16.222-27.041-25.826-39.811-30.748
					c-71.515-27.576-118.343,55.306-199.062,36.899C1335.826,1286.125,1279.225,1216.774,1285.846,1159.17z"/>
				
					<linearGradient id="SVGID_00000054978975989043463260000010715789434465089951_" gradientUnits="userSpaceOnUse" x1="-1346.5463" y1="1116.4829" x2="-1263.8761" y2="1594.4208" gradientTransform="matrix(-1 0 0 1 210.7145 0)">
					<stop  offset="0" style="stop-color:#AB316D"/>
					<stop  offset="1" style="stop-color:#792D3D"/>
				</linearGradient>
				<path style="fill:url(#SVGID_00000054978975989043463260000010715789434465089951_);" d="M1811.318,1237.466
					c-14.579-0.774-37.031-1.223-64.113,1.452c-128.527,12.702-163.958,76.277-270.184,91.79
					c-25.128,3.671-137.008,20.01-185.467-44.667c-34.789-46.435-29.526-126.447,8.526-157.917
					c16.104-13.318,32.049-12.948,135.187-12.016c38.841,0.352,77.685,0.477,116.524,0.973
					c164.414,2.095,195.857-9.291,225.772,17.903C1791.518,1147.67,1811.924,1174.918,1811.318,1237.466z"/>
				<g>
					<g>
						
							<linearGradient id="SVGID_00000150099636524261010430000017299149871251247269_" gradientUnits="userSpaceOnUse" x1="1208.8613" y1="998.5684" x2="1655.6481" y2="998.5684">
							<stop  offset="0" style="stop-color:#FFC444"/>
							<stop  offset="0.9964" style="stop-color:#F36F56"/>
						</linearGradient>
						<path style="fill:url(#SVGID_00000150099636524261010430000017299149871251247269_);" d="M1464.225,709.948
							c0,0-129.777-37.847-186.933,26.853c-10.493,11.878-18.789,27.5-24.827,57.652c-30.764,153.655,85.598,245.945,39.753,327.006
							c-18.205,32.19-50.27,41.889-73.056,99.74c-3.857,9.793-17.81,45.219-5.006,56.381c11.276,9.831,29.819-10.925,62.76-6.916
							c34.883,4.244,43.034,31.042,66.503,27.14c15.303-2.545,21.9-15.61,44.444-48.182c32.637-47.156,48.955-70.734,60.653-79.002
							c46.155-32.618,81.828,9.92,134.461-22.38c19.056-11.695,89.656-102.595,68.886-77.625l0,0
							c-49.439-61.677-60.927-112.562-62.109-147.942c-1.295-38.789,9.886-56.417,0-102.27c0,0-11.029-51.161-50.822-95.093
							C1533.219,719.003,1526.41,712.436,1464.225,709.948z"/>
					</g>
				</g>
				<g>
					<path style="fill:#FFFFFF;" d="M1422.557,625.771c1.757,8.211,10.704,52.272-7.324,63.609
						c-3.907,2.459-11.415,3.866-26.435,6.681c-9.832,1.842-18.081,2.972-23.9,3.668c0.841,7.388,3.329,19.414,11.857,30.354
						c23.902,30.665,71.828,22.731,78.662,21.484c24.107-4.389,47.83-11.837,53.558-16.39c8.723-6.932,15.581-12.132,19.639-17.416
						c-9.33-4.508-28.164-16.398-40.804-20.288c-9.447-2.906-18.314-4.98-26.38-6.469c-1.324-8.512-2.652-17.022-3.978-25.535
						C1445.819,652.237,1434.188,639.005,1422.557,625.771z"/>
					<path style="fill:#FFFFFF;" d="M1421.712,647.73c0,0,3.258,32.289,34.646,37.98c28.104,5.096,49.26-62.818,34.878-80.385
						c-4.798-5.859-16.641-11.435-26.91-11.14c-7.221,0.21-31.612,9.499-35.017,33.904c-4.858-5.117-10.91-6.588-13.894-4.445
						c-3.786,2.718-1.759,10.623-1.297,12.413C1415.709,642.263,1419.76,646.108,1421.712,647.73z"/>
				</g>
				
					<linearGradient id="SVGID_00000142172159427283642550000000666314697280097969_" gradientUnits="userSpaceOnUse" x1="1228.4323" y1="1101.1016" x2="1675.219" y2="1101.1016" gradientTransform="matrix(1 0 0 1 -19.5709 0)">
					<stop  offset="0" style="stop-color:#FFC444"/>
					<stop  offset="0.9964" style="stop-color:#F36F56"/>
				</linearGradient>
				<path style="opacity:0.4;fill:url(#SVGID_00000142172159427283642550000000666314697280097969_);" d="M1651.863,1070.615
					c-5.948-7.421-11.319-14.677-16.217-21.777c-27.267-9.136-50.856-12.535-69.885-13.459c-42.923-2.082-66.427,8.017-95.644-9.565
					c-33.165-19.958-27.295-47.661-59.3-63.125c-33.683-16.275-57.5,2.117-89.905-3.825c-19.57-3.589-43.408-16.675-67.733-54.852
					c18.628,91.915,72.805,157.744,39.04,217.447c-18.205,32.19-50.27,41.889-73.056,99.74c-3.857,9.793-17.81,45.219-5.006,56.381
					c11.277,9.831,29.819-10.925,62.76-6.916c34.883,4.244,43.034,31.042,66.503,27.14c15.303-2.545,21.9-15.61,44.444-48.182
					c32.638-47.156,48.955-70.734,60.653-79.002c46.155-32.618,81.828,9.92,134.461-22.38
					C1602.033,1136.545,1672.633,1045.645,1651.863,1070.615z"/>
			</g>
			<g>
				
					<linearGradient id="SVGID_00000049916699295137352070000011060547178223987382_" gradientUnits="userSpaceOnUse" x1="21.8787" y1="1110.24" x2="342.8331" y2="1110.24" gradientTransform="matrix(-1 0 0 1 1720.7078 0)">
					<stop  offset="0" style="stop-color:#40447E"/>
					<stop  offset="0.9964" style="stop-color:#3C3B6B"/>
				</linearGradient>
				<path style="fill:url(#SVGID_00000049916699295137352070000011060547178223987382_);" d="M1690.968,1086.386l-293.642,14.289
					c-4.042,0.198-7.728,2.363-9.867,5.797l-8.125,13.041c-4.044,6.491,0.815,14.864,8.459,14.573l311.036-11.849L1690.968,1086.386
					z"/>
				
					<linearGradient id="SVGID_00000145763873170674556970000003113173732279788425_" gradientUnits="userSpaceOnUse" x1="-183.3716" y1="907.7805" x2="27.0548" y2="1116.5236" gradientTransform="matrix(-1 0 0 1 1720.7078 0)">
					<stop  offset="0" style="stop-color:#40447E"/>
					<stop  offset="0.9964" style="stop-color:#3C3B6B"/>
				</linearGradient>
				<path style="fill:url(#SVGID_00000145763873170674556970000003113173732279788425_);" d="M1996.38,922.866l-303.364,5.879
					c-8.977,0.174-17.197,5.063-21.632,12.868l-105.052,184.828l320.391-12.765c8.793-0.35,16.818-5.112,21.338-12.664
					l97.33-162.604C2009.536,931.488,2004.447,922.71,1996.38,922.866z"/>
				
					<linearGradient id="SVGID_00000098196642987547900870000015546758159799359915_" gradientUnits="userSpaceOnUse" x1="-183.3714" y1="907.7805" x2="27.0553" y2="1116.5238" gradientTransform="matrix(-1 0 0 1 1720.7078 0)">
					<stop  offset="0" style="stop-color:#40447E"/>
					<stop  offset="0.9964" style="stop-color:#3C3B6B"/>
				</linearGradient>
				<path style="opacity:0.3;fill:url(#SVGID_00000098196642987547900870000015546758159799359915_);" d="M1671.383,941.614
					c4.436-7.806,12.656-12.696,21.633-12.869l6.647-0.129c0.992,9.793,3.997,18.751,9.989,25.983
					c18.705,22.579,49.784,8.652,72.949,32.547c25.445,26.248,1.938,57.495,24.689,81.926
					c23.947,25.712,62.668,4.776,107.181,21.232l-6.409,10.708c-4.519,7.553-12.544,12.314-21.338,12.664l-320.391,12.765
					L1671.383,941.614z"/>
			</g>
			<g>
				
					<linearGradient id="SVGID_00000161625625480088271400000011021108743995314089_" gradientUnits="userSpaceOnUse" x1="1102.8479" y1="517.2747" x2="1386.33" y2="1382.0125">
					<stop  offset="0" style="stop-color:#FFC444"/>
					<stop  offset="0.9964" style="stop-color:#F36F56"/>
				</linearGradient>
				<path style="fill:url(#SVGID_00000161625625480088271400000011021108743995314089_);" d="M1421.254,1076.574
					c3.822-10.093,7.645-20.184,11.466-30.279c-42.241-11.582-100.662-28.692-160.585-50.105
					c-9.385-3.354-20.534-7.507-24.186-17.383c-10.246-27.702,54.892-56.408,80.216-116.894
					c23.419-55.943,10.529-133.575-16.651-142.747c-56.558-19.084-257.122,230.568-185.488,335.81
					C1166.517,1114.467,1291.353,1123.939,1421.254,1076.574z"/>
			</g>
			<path style="fill:#FFFFFF;" d="M1432.72,1046.295c26.519-14.087,58.262,0.353,60.308,1.32c5.827,2.75,14.307,7.65,22.876,16.402
				c0.969,1.321,12.472,17.261,8.281,22.368c-3.359,4.093-16.368,0.7-32.002-9.023c-6.553-0.919-16.309-1.763-27.998-0.687
				c-21.463,1.98-31.295,8.761-39.087,2.908c-5.705-4.284-7.649-13.344-5.596-20.079
				C1421.707,1052.27,1428.232,1048.68,1432.72,1046.295z"/>
		</g>
		<g>
			
				<linearGradient id="SVGID_00000065062358625360798800000009975706319929167275_" gradientUnits="userSpaceOnUse" x1="3600.4133" y1="2451.6045" x2="3659.5117" y2="2376.772" gradientTransform="matrix(-1 0 0 1 5903.6626 0)">
				<stop  offset="0" style="stop-color:#AA80F9"/>
				<stop  offset="0.9964" style="stop-color:#6165D7"/>
			</linearGradient>
			<path style="fill:url(#SVGID_00000065062358625360798800000009975706319929167275_);" d="M2153.74,2571.012
				c-32.115-17.799-22.714-118.815,20.857-189.798c61.866-100.787,197.457-148.901,225.254-118.883
				c28.448,30.719-53.441,146.038-66.743,164.769C2284.854,2495.055,2191.728,2592.066,2153.74,2571.012z"/>
			
				<linearGradient id="SVGID_00000006672823344294884690000007430698886730674065_" gradientUnits="userSpaceOnUse" x1="-480.3972" y1="3826.4082" x2="-383.1792" y2="3826.4082" gradientTransform="matrix(0.9294 0.369 -0.369 0.9294 3586.6438 -232.6526)">
				<stop  offset="0" style="stop-color:#444B8C"/>
				<stop  offset="0.9964" style="stop-color:#26264F"/>
			</linearGradient>
			<path style="fill:url(#SVGID_00000006672823344294884690000007430698886730674065_);" d="M1817.897,3157.316
				c5.237,7.239,5.26,19.51-0.581,24.912c-5.741,5.31-12.919,0.063-34.719-1.681c-23.352-1.866-30.034,2.96-45.371-3.144
				c-6.196-2.47-17.01-7.997-16.293-12.537c0.504-3.193,6.432-4.216,26.33-8.533c28.245-6.126,28.179-6.638,34.069-6.958
				C1796.127,3148.567,1810.98,3147.757,1817.897,3157.316z"/>
			
				<linearGradient id="SVGID_00000097470838594933555700000002385824093018810509_" gradientUnits="userSpaceOnUse" x1="-688.7173" y1="3704.2507" x2="-647.7236" y2="3619.4031" gradientTransform="matrix(0.9527 0.304 -0.304 0.9527 3566.5315 -152.086)">
				<stop  offset="0" style="stop-color:#FFC444"/>
				<stop  offset="0.9964" style="stop-color:#F36F56"/>
			</linearGradient>
			<path style="fill:url(#SVGID_00000097470838594933555700000002385824093018810509_);" d="M1807.164,3117.71l-15.95,37.547
				c0.654,2.18,11.756,10.435,22.426,7.155l21.487-35.781L1807.164,3117.71z"/>
			
				<linearGradient id="SVGID_00000152250011032282002540000000870552469155668148_" gradientUnits="userSpaceOnUse" x1="-328.0949" y1="3820.1462" x2="-230.8771" y2="3820.1462" gradientTransform="matrix(0.9294 0.369 -0.369 0.9294 3586.6438 -232.6526)">
				<stop  offset="0" style="stop-color:#444B8C"/>
				<stop  offset="0.9964" style="stop-color:#26264F"/>
			</linearGradient>
			<path style="fill:url(#SVGID_00000152250011032282002540000000870552469155668148_);" d="M1961.757,3207.694
				c5.237,7.241,5.261,19.512-0.58,24.914c-5.741,5.31-12.918,0.063-34.719-1.681c-23.352-1.867-30.035,2.96-45.371-3.144
				c-6.196-2.47-17.01-7.997-16.293-12.537c0.503-3.192,6.432-4.216,26.33-8.532c28.245-6.126,28.179-6.638,34.069-6.959
				C1939.986,3198.948,1954.841,3198.136,1961.757,3207.694z"/>
			
				<linearGradient id="SVGID_00000145757740140401898670000016565964167856286390_" gradientUnits="userSpaceOnUse" x1="-536.3541" y1="3708.5139" x2="-495.3607" y2="3623.667" gradientTransform="matrix(0.9527 0.304 -0.304 0.9527 3566.5315 -152.086)">
				<stop  offset="0" style="stop-color:#FFC444"/>
				<stop  offset="0.9964" style="stop-color:#F36F56"/>
			</linearGradient>
			<path style="fill:url(#SVGID_00000145757740140401898670000016565964167856286390_);" d="M1951.025,3168.09l-15.95,37.547
				c0.653,2.18,11.756,10.435,22.426,7.155l21.487-35.781L1951.025,3168.09z"/>
			
				<linearGradient id="SVGID_00000175302054377883516050000012478707297704774079_" gradientUnits="userSpaceOnUse" x1="3269.8442" y1="2808.9465" x2="3512.3779" y2="2501.8425" gradientTransform="matrix(-1 0 0 1 5903.6626 0)">
				<stop  offset="0" style="stop-color:#AA80F9"/>
				<stop  offset="0.9964" style="stop-color:#6165D7"/>
			</linearGradient>
			<path style="fill:url(#SVGID_00000175302054377883516050000012478707297704774079_);" d="M2657.435,2268.864
				c-37.261-12.698-94.204-27.455-164.342-27.446c-78.966,0.009-142.385,0.016-186.173,37.338
				c-106.275,90.58,12.675,307.539-48.26,468.208c-6.674,17.598-26.095,73.389-9.203,133.561
				c3.114,11.091,9.525,20.702,20.489,36.971c64.371,95.503,248.754,126.927,331.584,44.125
				c43.777-43.762,79.572-59.345,80.626-109.279C2686.309,2655.239,2655.728,2458.634,2657.435,2268.864z"/>
			
				<linearGradient id="SVGID_00000105415657577143023190000004519439986605981839_" gradientUnits="userSpaceOnUse" x1="3269.8706" y1="2799.3643" x2="3504.468" y2="2502.3093" gradientTransform="matrix(-1 0 0 1 5903.6626 0)">
				<stop  offset="0" style="stop-color:#AA80F9"/>
				<stop  offset="0.9964" style="stop-color:#6165D7"/>
			</linearGradient>
			<path style="opacity:0.3;fill:url(#SVGID_00000105415657577143023190000004519439986605981839_);" d="M2615.414,2509.651
				c15.053-41.215-0.545-88.393,33.019-108.987c12.299-7.547,27.585-10.745,44.236-10.378
				c-1.992,144.869-4.843,289.599-8.367,440.788c-1.164,49.935-7.407,52.406-55.813,96.168
				c-56.085,50.705-152.737,67.258-235.635,50.668c108.569-66.769,186.033-135.932,174.938-195.216
				c-12.92-69.041-139.355-89.428-134.267-138.515C2438.917,2592.154,2582.508,2599.75,2615.414,2509.651z"/>
			
				<linearGradient id="SVGID_00000102540130957898338200000005775684505436166281_" gradientUnits="userSpaceOnUse" x1="3135.5703" y1="2677.5444" x2="3376.4668" y2="2372.5132" gradientTransform="matrix(-1 0 0 1 5903.6626 0)">
				<stop  offset="0" style="stop-color:#AA80F9"/>
				<stop  offset="0.9964" style="stop-color:#6165D7"/>
			</linearGradient>
			<path style="fill:url(#SVGID_00000102540130957898338200000005775684505436166281_);" d="M2622.905,2273.321
				c36.5-24.642,124.44,37.502,173.189,92.204c22.658,25.422,101.546,113.937,81.946,232.841
				c-3.193,19.377-17.899,109.97-95.45,154.346c-69.437,39.734-163.198,29.513-238.321-26.761
				c-10.265-9.11-20.532-18.217-30.8-27.328c-10.1-10.917-20.201-21.833-30.301-32.752c15.877-13.207,42.854-32.259,80.739-44.483
				c57.73-18.628,95.684,9.01,109.491-9.185c16.999-22.4-34.751-64.134-48.331-159.08
				C2621.405,2427.502,2582.135,2300.846,2622.905,2273.321z"/>
			
				<linearGradient id="SVGID_00000181788929008598867290000008829501662103421597_" gradientUnits="userSpaceOnUse" x1="3149.4009" y1="3191.4709" x2="3476.0212" y2="2777.8933" gradientTransform="matrix(-0.994 -0.1094 -0.1094 0.994 5732.4976 314.9103)">
				<stop  offset="0" style="stop-color:#444B8C"/>
				<stop  offset="0.9964" style="stop-color:#26264F"/>
			</linearGradient>
			<path style="fill:url(#SVGID_00000181788929008598867290000008829501662103421597_);" d="M2548.648,2914.3
				c15.384,80.663-25.514,44.056-111.016-10.439c-90.05-57.394-290.767-147.677-390.167-69.313
				c-74.03,58.364-38.221,167.477-154.155,270.476c-20.421,18.143-39.224,30.315-50.904,37.294
				c-17.775-9.757-35.55-19.512-53.325-29.27c-2.608-43.475-7.511-210.505,112.241-346.429
				c28.953-32.862,84.095-96.005,168.763-115.963C2298.981,2596.702,2534.461,2839.905,2548.648,2914.3z"/>
			
				<linearGradient id="SVGID_00000140007955111154187600000007707178343575095438_" gradientUnits="userSpaceOnUse" x1="3343.8894" y1="2809.4885" x2="2964.9485" y2="3229.2388" gradientTransform="matrix(-0.994 -0.1094 -0.1094 0.994 5732.4976 314.9103)">
				<stop  offset="0" style="stop-color:#444B8C"/>
				<stop  offset="0.9964" style="stop-color:#26264F"/>
			</linearGradient>
			<path style="fill:url(#SVGID_00000140007955111154187600000007707178343575095438_);" d="M2644.566,2851.183
				c10.588,46.524-9.054,96.49-37.939,125.697c-64.12,64.834-189.688,43.446-265.743,8.521
				c-92.541-42.492-107.596-102.981-146.943-92.853c-61.142,15.738-35.292,164.875-154.156,270.477
				c-20.421,18.143-39.224,30.313-50.904,37.295c-17.774-9.759-35.55-19.514-53.325-29.273
				c-3.126-100.912,15.918-179.394,32.229-229.067c18.704-56.963,35.46-107.993,82.096-153.853
				c57.942-56.977,127.072-71.616,166.677-79.471C2384.12,2675.422,2617.058,2730.301,2644.566,2851.183z"/>
			<g>
				
					<linearGradient id="SVGID_00000103226281230690280510000004364843965990498741_" gradientUnits="userSpaceOnUse" x1="3625.8704" y1="2880.0049" x2="3572.667" y2="2729.2617" gradientTransform="matrix(-1 0 0 1 5903.6626 0)">
					<stop  offset="0" style="stop-color:#311944"/>
					<stop  offset="1" style="stop-color:#893976"/>
				</linearGradient>
				<polygon style="fill:url(#SVGID_00000103226281230690280510000004364843965990498741_);" points="2123.221,2698.176 
					2563.03,2691.61 2446.078,2748.053 2122.096,2726.85 				"/>
				
					<linearGradient id="SVGID_00000111887826238944410210000018434275575651934645_" gradientUnits="userSpaceOnUse" x1="3393.449" y1="2661.6011" x2="3412.957" y2="2796.3833" gradientTransform="matrix(-1 0 0 1 5903.6626 0)">
					<stop  offset="0" style="stop-color:#311944"/>
					<stop  offset="1" style="stop-color:#893976"/>
				</linearGradient>
				<path style="fill:url(#SVGID_00000111887826238944410210000018434275575651934645_);" d="M2578.552,2703.297v0.004
					c0,8.23-5.151,15.583-12.886,18.395l-140.534,55.093l-0.64-38.197l138.538-46.982
					C2570.804,2689.376,2578.552,2695.211,2578.552,2703.297z"/>
			</g>
			
				<linearGradient id="SVGID_00000104695150570158016200000008463111842626931641_" gradientUnits="userSpaceOnUse" x1="2405.8113" y1="2691.1299" x2="2516.0654" y2="2691.1299">
				<stop  offset="0" style="stop-color:#FFC444"/>
				<stop  offset="0.9964" style="stop-color:#F36F56"/>
			</linearGradient>
			<path style="fill:url(#SVGID_00000104695150570158016200000008463111842626931641_);" d="M2515.762,2685.646
				c2.699-0.602-13.151-32.182-25.594-28.538c-12.44,3.646-73.293,38.912-78.824,53.434c-5.533,14.521-5.533,14.521-5.533,14.521
				s26.544,2.074,43.008-3.457C2465.282,2716.074,2493.811,2690.54,2515.762,2685.646z"/>
			<g>
				<g>
					
						<linearGradient id="SVGID_00000052806537915385169230000010140073077074029444_" gradientUnits="userSpaceOnUse" x1="3779.9878" y1="2673.406" x2="3676.261" y2="2526.1138" gradientTransform="matrix(-1 0 0 1 5903.6626 0)">
						<stop  offset="0" style="stop-color:#444B8C"/>
						<stop  offset="0.9964" style="stop-color:#26264F"/>
					</linearGradient>
					<path style="fill:url(#SVGID_00000052806537915385169230000010140073077074029444_);" d="M2412.825,2470.601l31,282.268
						c1.07,9.74-12.565,24.25-22.353,23.787l-454.785-27.919c-7.474-0.355-13.695-5.855-14.96-13.228l-57.082-272.621
						c-1.704-9.92,16.13-20.167,26.193-19.886l476.585,13.401C2405.384,2456.626,2411.956,2462.686,2412.825,2470.601z"/>
					
						<linearGradient id="SVGID_00000074407917327943761510000003369324059249494940_" gradientUnits="userSpaceOnUse" x1="3581.021" y1="2917.1716" x2="3808.0222" y2="2456.0759" gradientTransform="matrix(-1 0 0 1 5903.6626 0)">
						<stop  offset="0" style="stop-color:#311944"/>
						<stop  offset="1" style="stop-color:#893976"/>
					</linearGradient>
					<path style="fill:url(#SVGID_00000074407917327943761510000003369324059249494940_);" d="M2402.431,2478.83l31.003,282.27
						c1.067,9.74-6.818,18.131-16.605,17.669l-460.536-21.802c-7.473-0.354-13.694-5.856-14.961-13.227l-47.05-273.868
						c-1.704-9.923,6.099-18.922,16.162-18.639l476.587,13.4C2394.989,2464.855,2401.563,2470.917,2402.431,2478.83z"/>
				</g>
				
					<linearGradient id="SVGID_00000080929121498862535660000016194355830699314563_" gradientUnits="userSpaceOnUse" x1="3470.1313" y1="2621.2253" x2="3968.823" y2="2621.2253" gradientTransform="matrix(-1 0 0 1 5903.6626 0)">
					<stop  offset="0" style="stop-color:#311944"/>
					<stop  offset="1" style="stop-color:#893976"/>
				</linearGradient>
				<path style="opacity:0.3;fill:url(#SVGID_00000080929121498862535660000016194355830699314563_);" d="M2132.004,2690.824
					c40.213-17.044,26.019-49.546,73.504-90.044c62.645-53.427,126.497-30.258,148.851-71.669
					c6.959-12.898,10.286-32.967-1.84-65.448l34.512,0.97c7.957,0.222,14.532,6.284,15.4,14.197l31.003,282.27
					c1.066,9.739-6.819,18.131-16.605,17.669l-460.536-21.802c-7.473-0.354-13.694-5.854-14.961-13.227l-6.492-37.792
					c13.974-7.776,30.671-14.847,50.154-18.8C2052.558,2673.444,2085.708,2710.446,2132.004,2690.824z"/>
			</g>
			<g>
				
					<linearGradient id="SVGID_00000019666209930675873740000002373763496581839282_" gradientUnits="userSpaceOnUse" x1="2384.55" y1="2215.9893" x2="2581.7886" y2="2215.9893">
					<stop  offset="0" style="stop-color:#FFC444"/>
					<stop  offset="0.9964" style="stop-color:#F36F56"/>
				</linearGradient>
				<path style="fill:url(#SVGID_00000019666209930675873740000002373763496581839282_);" d="M2485.719,2133.532
					c-0.244,29.275,3.022,52.492,6.111,68.392c3.539,18.218,6.089,22.924,9.344,26.742c4.899,5.749,12.324,10.571,54.273,20.973
					c22.828,5.659,25.765,5.505,26.27,7.771c2.459,11.051-59.79,48.716-124.1,39.639c-39.359-5.556-75.17-28.011-72.972-39.803
					c2.212-11.867,41.529-5.499,53.247-26.969c8.151-14.936-0.986-36.139-11.787-53.698
					C2436.566,2156.978,2475.26,2153.133,2485.719,2133.532z"/>
				<g>
					
						<linearGradient id="SVGID_00000183216342760557631230000005068189143488905605_" gradientUnits="userSpaceOnUse" x1="-1334.741" y1="1565.9974" x2="-1409.1982" y2="1376.8898" gradientTransform="matrix(0.9687 -0.2485 0.2485 0.9687 3447.4724 427.3052)">
						<stop  offset="0" style="stop-color:#444B8C"/>
						<stop  offset="0.9964" style="stop-color:#26264F"/>
					</linearGradient>
					<path style="fill:url(#SVGID_00000183216342760557631230000005068189143488905605_);" d="M2403.125,2170.757
						c-12.099-9.599-18.082-30.301-11.156-46.176c5.96-13.66,19.564-18.929,27.709-22.088c23.601-9.147,56.949-6.985,73.461,12.629
						c9.784,11.625,3.278,42.765,2.425,48.28c-0.967,6.239-4.865,9.308-7.833,14.606c-4.111,7.349-10.51,18.996-20.856,38.382
						c-2.322-4.321-5.512-9.587-9.83-15.072c-1.662-2.111-8.269-10.325-16.609-16.392
						C2423.727,2172.765,2414.594,2179.855,2403.125,2170.757z"/>
					
						<linearGradient id="SVGID_00000141434839593586106190000008901378215334867339_" gradientUnits="userSpaceOnUse" x1="2402.488" y1="2191.4099" x2="2498.7371" y2="2191.4099">
						<stop  offset="0" style="stop-color:#FFC444"/>
						<stop  offset="0.9964" style="stop-color:#F36F56"/>
					</linearGradient>
					<path style="fill:url(#SVGID_00000141434839593586106190000008901378215334867339_);" d="M2484.017,2197.889
						c0,0-9.162,30.411-41.551,36.633c-28.999,5.57-49.83-57.291-35.151-75.606c4.898-6.109,16.579-11.158,27.195-10.962
						c6.271,0.116,8.883,2.028,19.133,2.018c9.457-0.009,11.701-1.642,14.961-0.089c4.077,1.944,8.323,8.206,7.608,28.354
						c4.007-6.925,9.986-10.74,15.183-9.76c0.829,0.157,3.134,0.979,4.761,2.71
						C2502.044,2177.454,2497.802,2188.519,2484.017,2197.889z"/>
					
						<linearGradient id="SVGID_00000103247705352909296650000009905766999125956755_" gradientUnits="userSpaceOnUse" x1="-1357.4904" y1="1575.0497" x2="-1432.02" y2="1385.7579" gradientTransform="matrix(0.9687 -0.2485 0.2485 0.9687 3447.4724 427.3052)">
						<stop  offset="0" style="stop-color:#444B8C"/>
						<stop  offset="0.9964" style="stop-color:#26264F"/>
					</linearGradient>
					<path style="fill:url(#SVGID_00000103247705352909296650000009905766999125956755_);" d="M2468.897,2145.724
						c-1.109,1.383,4.432,5.42,6.636,12.599c4.281,13.937-5.58,34.573-19.761,39.8c-8.384,3.089-12.102-1.481-26.718,0.72
						c-9.049,1.363-16.09,4.393-20.44,6.601c-0.444,16.625,7.776,30.944,19.972,35.404c13.13,4.801,26.125-3.571,31.558-7.072
						c3.634-2.341,15.287-9.817,18.902-23.231c3.765-13.979-4.951-19.543,0.862-29.847c2.931-5.197,7.734-8.369,10.772-17.744
						c0.826-2.547,1.253-4.721,1.482-6.169C2482.776,2150.904,2470.501,2143.719,2468.897,2145.724z"/>
					<path style="fill:#F4F7FA;" d="M2420.458,2208.479c0,0,6.997,1.613,17.483-1.756c0.51-0.166,1.121-0.163,1.256,0.089
						c0.508,0.946-5.141,7.25-11.892,7.121c-4.794-0.094-9.371-3.417-9.051-4.649
						C2418.393,2208.765,2419.418,2208.561,2420.458,2208.479z"/>
				</g>
			</g>
		</g>
		<g>
			<g>
				
					<linearGradient id="SVGID_00000038392008899643835030000015174556190606699664_" gradientUnits="userSpaceOnUse" x1="2469.4648" y1="867.3263" x2="2719.7161" y2="1511.9115">
					<stop  offset="0" style="stop-color:#AA80F9"/>
					<stop  offset="0.9964" style="stop-color:#6165D7"/>
				</linearGradient>
				<path style="fill:url(#SVGID_00000038392008899643835030000015174556190606699664_);" d="M2750.015,957.542
					c0,106.185-148.76,299.95-216.082,382.202c-16.753,20.468-48.07,20.468-64.823,0
					c-67.322-82.252-216.082-276.016-216.082-382.202c0-137.239,111.254-248.493,248.493-248.493S2750.015,820.303,2750.015,957.542
					z"/>
				
					<ellipse transform="matrix(0.7071 -0.7071 0.7071 0.7071 55.5941 2049.3008)" style="fill:#FFFFFF;" cx="2501.522" cy="957.542" rx="138.588" ry="138.588"/>
				<g style="opacity:0.2;">
					
						<linearGradient id="SVGID_00000088851168068406041330000000052605367474190508_" gradientUnits="userSpaceOnUse" x1="2379.8589" y1="902.1142" x2="2630.1104" y2="1546.7008">
						<stop  offset="0" style="stop-color:#AA80F9"/>
						<stop  offset="0.9964" style="stop-color:#6165D7"/>
					</linearGradient>
					<path style="fill:url(#SVGID_00000088851168068406041330000000052605367474190508_);" d="M2500.424,1237.717
						c15.766-103.824,84.326-137.056,72.559-235.091c-13.572-113.06-113.678-143.173-116.094-243.798
						c-0.389-16.2,1.815-31.822,5.972-46.78c-118.876,18.572-209.832,121.407-209.832,245.495
						c0,106.185,148.76,299.95,216.082,382.202c9.861,12.048,24.766,16.996,38.779,14.861
						C2495.842,1309.13,2495.477,1270.297,2500.424,1237.717z"/>
				</g>
			</g>
			
				<linearGradient id="SVGID_00000167359606153894423670000011990083311341002142_" gradientUnits="userSpaceOnUse" x1="2566.6545" y1="1361.7771" x2="2404.1228" y2="1608.4772">
				<stop  offset="0" style="stop-color:#AA80F9"/>
				<stop  offset="0.9964" style="stop-color:#6165D7"/>
			</linearGradient>
			
				<circle style="fill:url(#SVGID_00000167359606153894423670000011990083311341002142_);" cx="2501.522" cy="1460.639" r="50.791"/>
		</g>
		<g>
			<g>
				
					<linearGradient id="SVGID_00000052814599175042094150000018056184070712997809_" gradientUnits="userSpaceOnUse" x1="1422.4601" y1="1697.6165" x2="1672.7112" y2="2342.2017">
					<stop  offset="0" style="stop-color:#FF9085"/>
					<stop  offset="1" style="stop-color:#FB6FBB"/>
				</linearGradient>
				<path style="fill:url(#SVGID_00000052814599175042094150000018056184070712997809_);" d="M1703.01,1787.833
					c0,106.185-148.76,299.949-216.082,382.202c-16.753,20.468-48.07,20.468-64.823,0
					c-67.322-82.252-216.082-276.016-216.082-382.202c0-137.239,111.254-248.493,248.493-248.493
					C1591.756,1539.339,1703.01,1650.594,1703.01,1787.833z"/>
				
					<ellipse transform="matrix(0.7071 -0.7071 0.7071 0.7071 -838.1704 1552.1429)" style="fill:#FFFFFF;" cx="1454.517" cy="1787.833" rx="138.588" ry="138.588"/>
				<g style="opacity:0.2;">
					
						<linearGradient id="SVGID_00000005260700142742260040000015005876330244583575_" gradientUnits="userSpaceOnUse" x1="1332.854" y1="1732.4044" x2="1583.1057" y2="2376.991">
						<stop  offset="0" style="stop-color:#FF9085"/>
						<stop  offset="1" style="stop-color:#FB6FBB"/>
					</linearGradient>
					<path style="fill:url(#SVGID_00000005260700142742260040000015005876330244583575_);" d="M1453.419,2068.007
						c15.766-103.824,84.326-137.056,72.559-235.091c-13.572-113.06-113.678-143.173-116.094-243.798
						c-0.389-16.2,1.815-31.822,5.972-46.78c-118.876,18.572-209.832,121.407-209.832,245.495
						c0,106.185,148.76,299.949,216.082,382.202c9.861,12.048,24.766,16.996,38.779,14.861
						C1448.837,2139.42,1448.472,2100.588,1453.419,2068.007z"/>
				</g>
			</g>
			
				<linearGradient id="SVGID_00000152966474487477689690000003083896642175063438_" gradientUnits="userSpaceOnUse" x1="1519.6497" y1="2192.0674" x2="1357.1182" y2="2438.7673">
				<stop  offset="0" style="stop-color:#FF9085"/>
				<stop  offset="1" style="stop-color:#FB6FBB"/>
			</linearGradient>
			<circle style="fill:url(#SVGID_00000152966474487477689690000003083896642175063438_);" cx="1454.517" cy="2290.93" r="50.791"/>
		</g>
		<g>
			
				<linearGradient id="SVGID_00000099639745350599528510000004742804871987704233_" gradientUnits="userSpaceOnUse" x1="2079.3389" y1="2340.2954" x2="2129.3508" y2="2340.2954">
				<stop  offset="0" style="stop-color:#AA80F9"/>
				<stop  offset="0.9964" style="stop-color:#6165D7"/>
			</linearGradient>
			
				<circle style="fill:url(#SVGID_00000099639745350599528510000004742804871987704233_);" cx="2104.345" cy="2340.295" r="25.006"/>
			
				<linearGradient id="SVGID_00000038412444376073185960000007133428861690651812_" gradientUnits="userSpaceOnUse" x1="1961.6268" y1="2171.4175" x2="2247.063" y2="2171.4175">
				<stop  offset="0" style="stop-color:#AA80F9"/>
				<stop  offset="0.9964" style="stop-color:#6165D7"/>
			</linearGradient>
			<path style="fill:url(#SVGID_00000038412444376073185960000007133428861690651812_);" d="M2104.345,2130.7
				c-52.246,0-100.019,19.124-136.721,50.746c-7.531,6.489-8.071,17.961-1.042,24.991l0.706,0.706
				c6.254,6.254,16.302,6.711,22.995,0.929c30.6-26.432,70.453-42.439,114.062-42.439c43.61,0,83.462,16.007,114.062,42.439
				c6.693,5.781,16.741,5.325,22.995-0.929l0.706-0.706c7.03-7.03,6.49-18.501-1.042-24.991
				C2204.364,2149.824,2156.591,2130.7,2104.345,2130.7z"/>
			
				<linearGradient id="SVGID_00000022522331226031100190000002698600324093322667_" gradientUnits="userSpaceOnUse" x1="2002.9337" y1="2220.8792" x2="2205.7559" y2="2220.8792">
				<stop  offset="0" style="stop-color:#AA80F9"/>
				<stop  offset="0.9964" style="stop-color:#6165D7"/>
			</linearGradient>
			<path style="fill:url(#SVGID_00000022522331226031100190000002698600324093322667_);" d="M2104.345,2188.921
				c-36.094,0-69.216,12.653-95.222,33.743c-7.783,6.312-8.277,18.036-1.192,25.121l0.121,0.122
				c6.21,6.209,16.037,6.55,22.877,1.042c20.089-16.177,45.614-25.872,73.415-25.872c27.802,0,53.326,9.695,73.415,25.872
				c6.84,5.508,16.667,5.167,22.877-1.042l0.121-0.122c7.085-7.085,6.591-18.809-1.191-25.121
				C2173.56,2201.573,2140.438,2188.921,2104.345,2188.921z"/>
			
				<linearGradient id="SVGID_00000134223204967433181660000012872810986019369368_" gradientUnits="userSpaceOnUse" x1="2044.5255" y1="2270.8872" x2="2164.1643" y2="2270.8872">
				<stop  offset="0" style="stop-color:#AA80F9"/>
				<stop  offset="0.9964" style="stop-color:#6165D7"/>
			</linearGradient>
			<path style="fill:url(#SVGID_00000134223204967433181660000012872810986019369368_);" d="M2049.581,2289.436
				c6.147,6.146,15.684,6.84,22.961,2.085c9.142-5.974,20.067-9.446,31.803-9.446c11.736,0,22.661,3.473,31.803,9.446
				c7.277,4.755,16.814,4.061,22.961-2.085l0.08-0.08c7.535-7.535,6.35-20.066-2.453-26.072
				c-14.925-10.183-32.958-16.142-52.39-16.142c-19.432,0-37.465,5.959-52.39,16.142c-8.803,6.006-9.988,18.537-2.453,26.072
				L2049.581,2289.436z"/>
		</g>
		<g>
			
				<linearGradient id="SVGID_00000115506649347709236740000017108507889785966766_" gradientUnits="userSpaceOnUse" x1="1752.986" y1="146.251" x2="1929.8553" y2="1652.3214">
				<stop  offset="0" style="stop-color:#AA80F9"/>
				<stop  offset="0.9964" style="stop-color:#6165D7"/>
			</linearGradient>
			<path style="fill:url(#SVGID_00000115506649347709236740000017108507889785966766_);" d="M1860.134,845.699
				c0,13.81-11.195,25.006-25.006,25.006s-25.006-11.195-25.006-25.006s11.196-25.006,25.006-25.006
				S1860.134,831.888,1860.134,845.699z"/>
			
				<linearGradient id="SVGID_00000110439579637663850490000004830990736633300905_" gradientUnits="userSpaceOnUse" x1="1769.8776" y1="144.2679" x2="1946.7466" y2="1650.3359">
				<stop  offset="0" style="stop-color:#AA80F9"/>
				<stop  offset="0.9964" style="stop-color:#6165D7"/>
			</linearGradient>
			<path style="fill:url(#SVGID_00000110439579637663850490000004830990736633300905_);" d="M1835.128,636.103
				c-52.246,0-100.019,19.124-136.721,50.746c-7.531,6.489-8.071,17.961-1.042,24.991l0.706,0.706
				c6.254,6.254,16.302,6.711,22.995,0.929c30.6-26.432,70.453-42.439,114.062-42.439c43.61,0,83.462,16.006,114.062,42.439
				c6.693,5.781,16.741,5.324,22.995-0.929l0.706-0.706c7.03-7.03,6.49-18.502-1.042-24.991
				C1935.147,655.228,1887.374,636.103,1835.128,636.103z"/>
			
				<linearGradient id="SVGID_00000153680672094186323370000000962439652651122841_" gradientUnits="userSpaceOnUse" x1="1765.1001" y1="144.8285" x2="1941.9694" y2="1650.8984">
				<stop  offset="0" style="stop-color:#AA80F9"/>
				<stop  offset="0.9964" style="stop-color:#6165D7"/>
			</linearGradient>
			<path style="fill:url(#SVGID_00000153680672094186323370000000962439652651122841_);" d="M1835.128,694.324
				c-36.093,0-69.216,12.652-95.222,33.743c-7.783,6.312-8.277,18.036-1.192,25.121l0.121,0.121c6.21,6.21,16.038,6.55,22.877,1.042
				c20.089-16.177,45.614-25.872,73.415-25.872c27.802,0,53.326,9.695,73.415,25.872c6.84,5.508,16.668,5.167,22.877-1.042
				l0.121-0.122c7.085-7.085,6.591-18.81-1.192-25.121C1904.343,706.977,1871.221,694.324,1835.128,694.324z"/>
			
				<linearGradient id="SVGID_00000178892787228554972670000007387613325535656081_" gradientUnits="userSpaceOnUse" x1="1760.2766" y1="145.3926" x2="1937.1462" y2="1651.4655">
				<stop  offset="0" style="stop-color:#AA80F9"/>
				<stop  offset="0.9964" style="stop-color:#6165D7"/>
			</linearGradient>
			<path style="fill:url(#SVGID_00000178892787228554972670000007387613325535656081_);" d="M1780.364,794.839
				c6.147,6.147,15.684,6.84,22.961,2.085c9.142-5.974,20.067-9.446,31.803-9.446s22.661,3.473,31.803,9.446
				c7.277,4.755,16.814,4.061,22.961-2.085l0.08-0.08c7.535-7.535,6.35-20.066-2.453-26.072
				c-14.925-10.183-32.958-16.142-52.39-16.142c-19.432,0-37.465,5.959-52.391,16.142c-8.803,6.006-9.988,18.537-2.453,26.072
				L1780.364,794.839z"/>
		</g>
	</g>
</g>
</svg>
